<?xml version="1.0" encoding="utf-8"?>
<!-- Generator: Adobe Illustrator 27.4.1, SVG Export Plug-In . SVG Version: 6.00 Build 0)  -->
<svg version="1.1" id="Layer_1" xmlns="http://www.w3.org/2000/svg" xmlns:xlink="http://www.w3.org/1999/xlink" x="0px" y="0px"
	 viewBox="0 0 192 240" style="enable-background:new 0 0 192 240;" xml:space="preserve">
<style type="text/css">
	.st0{fill:#ECECEC;}
	.st1{fill-opacity:0;stroke:#000000;stroke-width:0.9796;stroke-miterlimit:3.9184;stroke-opacity:0;}
	.st2{fill:#08A08C;}
	.st3{fill:#08A490;}
	.st4{fill:#07BEA7;}
	.st5{fill:#F1BB23;}
	.st6{fill:#F6DF2F;}
	.st7{fill:#E4862C;}
	.st8{fill:#FFFFFF;}
	.st9{fill:#BF3729;}
	.st10{fill:#CFF5F0;}
	.st11{fill:#0BC7AF;}
	.st12{fill:#F6DA2E;}
	.st13{fill:#FFED85;}
</style>
<g>
	<g>
		<path id="j8gV8AA88" class="st0" d="M96.9,236.6c-48.7,0-88.2-9.8-88.2-9.8s39.5-9.8,88.2-9.8c48.7,0,88.2,9.8,88.2,9.8
			C167.5,228.7,145.7,236.6,96.9,236.6z"/>
	</g>
	<g>
		<g>
			<path id="j8gV8AA88_00000142163140444654115070000016469640664117880233_" class="st1" d="M96.9,236.6c-48.7,0-88.2-9.8-88.2-9.8
				s39.5-9.8,88.2-9.8c48.7,0,88.2,9.8,88.2,9.8C167.5,228.7,145.7,236.6,96.9,236.6z"/>
		</g>
	</g>
</g>
<g>
	<g>
		<path id="e9uVrDGYw" class="st2" d="M141.3,178.1l-51.3,4.4l-24.3-16l-9.3-7l-12.4-9.3c39-1.7,60.6-2.6,65-2.8
			c0,0,40.4,24.1,43.1,29.7C150.7,177.3,147.1,177.6,141.3,178.1z"/>
	</g>
	<g>
		<g>
			<path id="e9uVrDGYw_00000000210658200222042960000004127016538225668263_" class="st1" d="M141.3,178.1l-51.3,4.4l-24.3-16
				l-9.3-7l-12.4-9.3c39-1.7,60.6-2.6,65-2.8c0,0,40.4,24.1,43.1,29.7C150.7,177.3,147.1,177.6,141.3,178.1z"/>
		</g>
	</g>
</g>
<g>
	<g>
		<path id="a2VFhi9XkG" class="st3" d="M83,208.7l-4.9,18.1l-20.8-13.3l-3.4-2.2l-8.1-5.2c-8.3-5.3-12.8-8.2-13.8-8.8
			c0,0,5.9-24.7,12.1-47.1c1,0.7,5.9,4.2,14.8,10.4l8,5.6l3.1,2.2l19.9,14.1l0.2,0L83,208.7z"/>
	</g>
	<g>
		<g>
			<path id="a2VFhi9XkG_00000074412148358490470850000010910740913213706394_" class="st1" d="M83,208.7l-4.9,18.1l-20.8-13.3
				l-3.4-2.2l-8.1-5.2c-8.3-5.3-12.8-8.2-13.8-8.8c0,0,5.9-24.7,12.1-47.1c1,0.7,5.9,4.2,14.8,10.4l8,5.6l3.1,2.2l19.9,14.1l0.2,0
				L83,208.7z"/>
		</g>
	</g>
</g>
<g>
	<g>
		<path id="a2CxEA0bpy" class="st4" d="M119.7,224l-9,0.6l-4.2,0.3L89.4,226l-11.2,0.8l4.9-18.1l7-26.1l28.8-2.5l3.9-0.3l9.6-0.8
			c11.9-1,18.5-1.6,19.9-1.7c-4.5,17.2-10.1,38-13,45.5C136.6,222.9,130.1,223.3,119.7,224z"/>
	</g>
	<g>
		<g>
			<path id="a2CxEA0bpy_00000043416317492995591840000017265906669589257139_" class="st1" d="M119.7,224l-9,0.6l-4.2,0.3L89.4,226
				l-11.2,0.8l4.9-18.1l7-26.1l28.8-2.5l3.9-0.3l9.6-0.8c11.9-1,18.5-1.6,19.9-1.7c-4.5,17.2-10.1,38-13,45.5
				C136.6,222.9,130.1,223.3,119.7,224z"/>
		</g>
	</g>
</g>
<g>
	<g>
		<path id="a3q9SdqUxz" class="st5" d="M70,168.5l-12.6,45l-3.4-2.2l-8.1-5.2l13.1-45.4l8,5.6L70,168.5z"/>
	</g>
	<g>
		<g>
			<path id="a3q9SdqUxz_00000081613477309395515800000009082048997881414831_" class="st1" d="M70,168.5l-12.6,45l-3.4-2.2l-8.1-5.2
				l13.1-45.4l8,5.6L70,168.5z"/>
		</g>
	</g>
</g>
<g>
	<g>
		<path id="hiPqFug2o" class="st5" d="M132.4,178.9L119.7,224l-9,0.6l-4.2,0.3l12.4-44.8l3.9-0.3L132.4,178.9z"/>
	</g>
	<g>
		<g>
			<path id="hiPqFug2o_00000012449794706236804870000012983723234525023401_" class="st1" d="M132.4,178.9L119.7,224l-9,0.6
				l-4.2,0.3l12.4-44.8l3.9-0.3L132.4,178.9z"/>
		</g>
	</g>
</g>
<g>
	<g>
		<path id="fCIkwSK9W" class="st6" d="M57.3,213.5l-3.4-2.2l13-45l3.1,2.2L57.3,213.5z"/>
	</g>
	<g>
		<g>
			<path id="fCIkwSK9W_00000008864253376782428930000008921521738747427734_" class="st1" d="M57.3,213.5l-3.4-2.2l13-45l3.1,2.2
				L57.3,213.5z"/>
		</g>
	</g>
</g>
<g>
	<g>
		<path id="i2mGlpBa37" class="st7" d="M122.8,179.7l-12.1,44.9l-4.2,0.3l12.4-44.8L122.8,179.7z"/>
	</g>
	<g>
		<g>
			<path id="i2mGlpBa37_00000088832501799550124880000005750470022304539557_" class="st1" d="M122.8,179.7l-12.1,44.9l-4.2,0.3
				l12.4-44.8L122.8,179.7z"/>
		</g>
	</g>
</g>
<g>
	<g>
		<path id="c5sKi8XThw" class="st8" d="M78.2,226.8c2.9-10.9,4.5-16.9,4.9-18.1c0,0-1.8,13.9-1.2,15c0.6,1,7.5,2.4,7.5,2.4
			C87.9,226.1,84.2,226.4,78.2,226.8z"/>
	</g>
	<g>
		<g>
			<path id="c5sKi8XThw_00000103245049075012803250000018087015015627069082_" class="st1" d="M78.2,226.8
				c2.9-10.9,4.5-16.9,4.9-18.1c0,0-1.8,13.9-1.2,15c0.6,1,7.5,2.4,7.5,2.4C87.9,226.1,84.2,226.4,78.2,226.8z"/>
		</g>
	</g>
</g>
<g>
	<g>
		<path id="c4EmDTp02h" class="st7" d="M90.5,182.5l-0.6,0.1l-12.1-8l-12.1-8l-8.8-6.6l-0.4-0.3c30.9-2.2,48.1-3.4,51.5-3.7
			c0,0,12,7.3,22.5,14.4c4.1,2.8,8,5.5,10.9,7.8c0,0,0,0,0,0C134.6,178.7,117.6,180.1,90.5,182.5z"/>
	</g>
	<g>
		<g>
			<path id="c4EmDTp02h_00000168809158635019191460000006736440029650628284_" class="st1" d="M90.5,182.5l-0.6,0.1l-12.1-8l-12.1-8
				l-8.8-6.6l-0.4-0.3c30.9-2.2,48.1-3.4,51.5-3.7c0,0,12,7.3,22.5,14.4c4.1,2.8,8,5.5,10.9,7.8c0,0,0,0,0,0
				C134.6,178.7,117.6,180.1,90.5,182.5z"/>
		</g>
	</g>
</g>
<g>
	<g>
		<path id="a1AAl50WX0" class="st9" d="M108,155.9l-51.5,3.7l-12.4-9.3l65-2.8L108,155.9z"/>
	</g>
	<g>
		<g>
			<path id="a1AAl50WX0_00000164482002544080761240000011314149353533519761_" class="st1" d="M108,155.9l-51.5,3.7l-12.4-9.3
				l65-2.8L108,155.9z"/>
		</g>
	</g>
</g>
<g>
	<g>
		<path id="a27Hlsjs4c" class="st7" d="M105.4,181.2c1.6-15.2,2.4-23.6,2.6-25.3c0,0,23.2,14.3,33.3,22.2c0,0,0,0,0,0
			C136.5,178.5,124.6,179.5,105.4,181.2z"/>
	</g>
	<g>
		<g>
			<path id="a27Hlsjs4c_00000015326261485939779640000009141479545382925731_" class="st1" d="M105.4,181.2
				c1.6-15.2,2.4-23.6,2.6-25.3c0,0,23.2,14.3,33.3,22.2c0,0,0,0,0,0C136.5,178.5,124.6,179.5,105.4,181.2z"/>
		</g>
	</g>
</g>
<g>
	<g>
		<path id="b39vpMBxCI" class="st10" d="M175.3,154.2c1,2.2,0.2,6-1.6,7.6c-1.8,1.6-4.3,2.3-6.8,2.3c-3.3,0.1-6.8-1-9-3.5
			c-0.5,3.6-5,5.4-8.3,6.9c-6,2.8-12.5,3.1-19.2,2.9c-9.1-0.3-18.4-1.8-27.2,0.3c-5.1,1.2-10.4,4.1-12.1,9.1
			c-0.3,0.9-0.5,1.8-0.6,2.8c0,0-0.3,0-0.6,0.1c-7.2-4.8-11.3-7.5-12.1-8c-1-2.6-2.6-5.1-4.7-7c-4.4-4.1-10.3-6.3-16.2-7.7
			c-1.4-0.3-2.7-0.6-4.1-0.9c-7.3-1.4-14.9-2.4-21.4-6c-6.4-3.5-11.6-9.7-12.2-17c-0.7-7.2,4.2-15,11.3-16.3
			c-5.8-2.9-7.3-10.7-5.9-17c2.1-9.4,9.4-17.5,18.6-20.5c9.2-3,19.9-0.8,27.1,5.5c5-6.4,13.3-12.3,21.2-14.2
			c7.9-2,16.6-0.9,23.5,3.3c3.2,2,6.2,4.8,7.2,8.4c6.3-6.6,17.2-7.1,26.2-5.5c5.2,0.9,10.5,2.5,14.7,5.7c8.8,6.6,11.4,20.1,5.7,29.5
			c5.2-1,10.2,1.4,14,5.1c3.8,3.8,5.8,9,6.3,14.3c0.5,5.5-0.7,11.4-4.5,15.4C182,152.2,178.7,153.8,175.3,154.2z"/>
	</g>
	<g>
		<g>
			<path id="b39vpMBxCI_00000065754854420496938980000005429796752424869781_" class="st1" d="M175.3,154.2c1,2.2,0.2,6-1.6,7.6
				c-1.8,1.6-4.3,2.3-6.8,2.3c-3.3,0.1-6.8-1-9-3.5c-0.5,3.6-5,5.4-8.3,6.9c-6,2.8-12.5,3.1-19.2,2.9c-9.1-0.3-18.4-1.8-27.2,0.3
				c-5.1,1.2-10.4,4.1-12.1,9.1c-0.3,0.9-0.5,1.8-0.6,2.8c0,0-0.3,0-0.6,0.1c-7.2-4.8-11.3-7.5-12.1-8c-1-2.6-2.6-5.1-4.7-7
				c-4.4-4.1-10.3-6.3-16.2-7.7c-1.4-0.3-2.7-0.6-4.1-0.9c-7.3-1.4-14.9-2.4-21.4-6c-6.4-3.5-11.6-9.7-12.2-17
				c-0.7-7.2,4.2-15,11.3-16.3c-5.8-2.9-7.3-10.7-5.9-17c2.1-9.4,9.4-17.5,18.6-20.5c9.2-3,19.9-0.8,27.1,5.5
				c5-6.4,13.3-12.3,21.2-14.2c7.9-2,16.6-0.9,23.5,3.3c3.2,2,6.2,4.8,7.2,8.4c6.3-6.6,17.2-7.1,26.2-5.5c5.2,0.9,10.5,2.5,14.7,5.7
				c8.8,6.6,11.4,20.1,5.7,29.5c5.2-1,10.2,1.4,14,5.1c3.8,3.8,5.8,9,6.3,14.3c0.5,5.5-0.7,11.4-4.5,15.4
				C182,152.2,178.7,153.8,175.3,154.2z"/>
		</g>
	</g>
</g>
<g>
	<g>
		<path id="abdtVtTJ9F" class="st8" d="M176.9,153.9L176.9,153.9c3.4-4,4.6-10,4.1-15.5c-0.4-5.3-2.3-10.6-5.7-14.4
			c-3.4-3.8-8-6.2-12.7-5.2c5.2-9.5,2.8-23.1-5.1-29.8c-3.8-3.2-8.6-4.8-13.3-5.8c-8.2-1.6-18-1.1-23.8,5.6c-1-3.7-3.6-6.5-6.6-8.5
			c-6.3-4.3-14.2-5.3-21.3-3.4c-7.1,2-14.7,7.9-19.2,14.4c-6.6-6.4-16.3-8.6-24.6-5.6s-15,11.2-16.8,20.7
			c-1.3,6.4,0.1,14.2,5.4,17.2c-6.5,1.3-10.9,9.2-10.2,16.5c0.5,5.7,3.4,10.7,7.4,14.4c-1-0.4-2.1-0.9-3.1-1.5
			c-6.4-3.5-11.6-9.7-12.2-17c-0.7-7.2,4.2-15,11.3-16.3c-5.8-2.9-7.3-10.7-5.9-17c2.1-9.4,9.4-17.5,18.6-20.5
			c9.2-3,19.9-0.8,27.1,5.5c5-6.4,13.3-12.3,21.2-14.2c7.9-2,16.6-0.9,23.5,3.3c3.2,2,6.2,4.8,7.2,8.4c6.3-6.6,17.2-7.1,26.2-5.5
			c5.2,0.9,10.5,2.5,14.7,5.7c8.8,6.6,11.4,20.1,5.7,29.5c5.2-1,10.2,1.4,14,5.1c3.8,3.8,5.8,9,6.3,14.3c0.5,5.5-0.7,11.4-4.5,15.4
			C182.4,151.8,179.8,153.3,176.9,153.9z"/>
	</g>
	<g>
		<g>
			<path id="abdtVtTJ9F_00000046304319073554250410000002110591997642893503_" class="st1" d="M176.9,153.9L176.9,153.9
				c3.4-4,4.6-10,4.1-15.5c-0.4-5.3-2.3-10.6-5.7-14.4c-3.4-3.8-8-6.2-12.7-5.2c5.2-9.5,2.8-23.1-5.1-29.8
				c-3.8-3.2-8.6-4.8-13.3-5.8c-8.2-1.6-18-1.1-23.8,5.6c-1-3.7-3.6-6.5-6.6-8.5c-6.3-4.3-14.2-5.3-21.3-3.4
				c-7.1,2-14.7,7.9-19.2,14.4c-6.6-6.4-16.3-8.6-24.6-5.6s-15,11.2-16.8,20.7c-1.3,6.4,0.1,14.2,5.4,17.2
				c-6.5,1.3-10.9,9.2-10.2,16.5c0.5,5.7,3.4,10.7,7.4,14.4c-1-0.4-2.1-0.9-3.1-1.5c-6.4-3.5-11.6-9.7-12.2-17
				c-0.7-7.2,4.2-15,11.3-16.3c-5.8-2.9-7.3-10.7-5.9-17c2.1-9.4,9.4-17.5,18.6-20.5c9.2-3,19.9-0.8,27.1,5.5
				c5-6.4,13.3-12.3,21.2-14.2c7.9-2,16.6-0.9,23.5,3.3c3.2,2,6.2,4.8,7.2,8.4c6.3-6.6,17.2-7.1,26.2-5.5c5.2,0.9,10.5,2.5,14.7,5.7
				c8.8,6.6,11.4,20.1,5.7,29.5c5.2-1,10.2,1.4,14,5.1c3.8,3.8,5.8,9,6.3,14.3c0.5,5.5-0.7,11.4-4.5,15.4
				C182.4,151.8,179.8,153.3,176.9,153.9z"/>
		</g>
	</g>
</g>
<g>
	<g>
		<path id="bbTFA5Fsl" class="st3" d="M69.1,93.1C69.1,93.1,69.1,93.1,69.1,93.1c0.1,0.2,0.5,1.3,1.2,3.3l-0.1,0.1l-24.4-0.1l-3.8,0
			l-9.8,0c-10.9-0.1-16.9-0.1-18.1-0.1c-3.3-9.3-6.3-18.3-8.3-24.9c1.2,0,7.1,0,17.8-0.1l9.8-0.1l3.5,0l3,0h0L61,70.9
			C65.9,84.2,68.5,91.6,69.1,93.1z"/>
	</g>
	<g>
		<g>
			<path id="bbTFA5Fsl_00000149375460553669977100000014884382283695496851_" class="st1" d="M69.1,93.1
				C69.1,93.1,69.1,93.1,69.1,93.1c0.1,0.2,0.5,1.3,1.2,3.3l-0.1,0.1l-24.4-0.1l-3.8,0l-9.8,0c-10.9-0.1-16.9-0.1-18.1-0.1
				c-3.3-9.3-6.3-18.3-8.3-24.9c1.2,0,7.1,0,17.8-0.1l9.8-0.1l3.5,0l3,0h0L61,70.9C65.9,84.2,68.5,91.6,69.1,93.1z"/>
		</g>
	</g>
</g>
<g>
	<g>
		<path id="d1X4QKNrKp" class="st4" d="M102.8,69.2l-7.4,6.1l-3,2.5L70.2,96.3c-0.7-1.9-1.1-3-1.2-3.2c0,0,0,0,0,0
			c-0.5-1.5-3.2-8.9-8-22.2l22.4-18.6l0,0l2.9-2.4l0,0l7.6-6.3c8.9-7.4,13.8-11.5,14.8-12.3c0,0,4.4,11.4,9.5,25.2
			C116.1,58.1,111,62.3,102.8,69.2z"/>
	</g>
	<g>
		<g>
			<path id="d1X4QKNrKp_00000145781036392125013150000007178418311003252646_" class="st1" d="M102.8,69.2l-7.4,6.1l-3,2.5
				L70.2,96.3c-0.7-1.9-1.1-3-1.2-3.2c0,0,0,0,0,0c-0.5-1.5-3.2-8.9-8-22.2l22.4-18.6l0,0l2.9-2.4l0,0l7.6-6.3
				c8.9-7.4,13.8-11.5,14.8-12.3c0,0,4.4,11.4,9.5,25.2C116.1,58.1,111,62.3,102.8,69.2z"/>
		</g>
	</g>
</g>
<g>
	<g>
		<path id="amsSDAcYR" class="st11" d="M50.5,37.8c3.7-1.7,58.2-6.6,58.2-6.6c-3.2,2.6-19,15.9-47.6,39.6L5.8,71.2
			C33.1,50.1,48,38.9,50.5,37.8z"/>
	</g>
	<g>
		<g>
			<path id="amsSDAcYR_00000093891033351659660860000018367081947109725318_" class="st1" d="M50.5,37.8c3.7-1.7,58.2-6.6,58.2-6.6
				c-3.2,2.6-19,15.9-47.6,39.6L5.8,71.2C33.1,50.1,48,38.9,50.5,37.8z"/>
		</g>
	</g>
</g>
<g>
	<g>
		<path id="aKbHDN5l9" class="st5" d="M65,45.6l-7.2,6.5h0l-1.4,1.2l0,0L36.9,71l8.8,25.3l-3.8,0l-9.8,0l-8.6-25.1l20.6-17.2
			l0.8-0.7l7.9-6.6l13.2-11.1l0.1,0l11.5-1.2L65,45.6z"/>
	</g>
	<g>
		<g>
			<path id="aKbHDN5l9_00000052784461095962207220000001711038256724962708_" class="st1" d="M65,45.6l-7.2,6.5h0l-1.4,1.2l0,0
				L36.9,71l8.8,25.3l-3.8,0l-9.8,0l-8.6-25.1l20.6-17.2l0.8-0.7l7.9-6.6l13.2-11.1l0.1,0l11.5-1.2L65,45.6z"/>
		</g>
	</g>
</g>
<g>
	<g>
		<path id="b70Qd6AxS" class="st5" d="M94,44L94,44l8.8,25.1l-7.4,6.1l-3,2.5L83.7,53l-0.3-0.8l0,0l-26.9,1.1l0,0l-12.3,0.5
			l-16.6,0.7l0.7-0.6l7.9-6l0.4-0.3l16.4-1.2L65,45.6l28.8-2.1L94,44z"/>
	</g>
	<g>
		<g>
			<path id="b70Qd6AxS_00000008134925261474833300000001849453746171926150_" class="st1" d="M94,44L94,44l8.8,25.1l-7.4,6.1l-3,2.5
				L83.7,53l-0.3-0.8l0,0l-26.9,1.1l0,0l-12.3,0.5l-16.6,0.7l0.7-0.6l7.9-6l0.4-0.3l16.4-1.2L65,45.6l28.8-2.1L94,44z"/>
		</g>
	</g>
</g>
<g>
	<g>
		<path id="blktTcZgS" class="st12" d="M36.9,71l40.8-36.8l-11.6,1.2L23.6,71.1L36.9,71z"/>
	</g>
	<g>
		<g>
			<path id="blktTcZgS_00000102533123902610398780000014650537764877520264_" class="st1" d="M36.9,71l40.8-36.8l-11.6,1.2
				L23.6,71.1L36.9,71z"/>
		</g>
	</g>
</g>
<g>
	<g>
		<path id="b1aGetkDLM" class="st6" d="M83.4,52.2l-55.9,2.3l9-6.8l57.3-4.2L83.4,52.2z"/>
	</g>
	<g>
		<g>
			<path id="b1aGetkDLM_00000001631081780922695600000006740897106997127602_" class="st1" d="M83.4,52.2l-55.9,2.3l9-6.8l57.3-4.2
				L83.4,52.2z"/>
		</g>
	</g>
</g>
<g>
	<g>
		<path id="cJH7oOJfW" class="st6" d="M45.7,96.3l-3.8,0L33.4,71l3.5,0L45.7,96.3z"/>
	</g>
	<g>
		<g>
			<path id="cJH7oOJfW_00000176738410886011812580000001382465222683462837_" class="st1" d="M45.7,96.3l-3.8,0L33.4,71l3.5,0
				L45.7,96.3z"/>
		</g>
	</g>
</g>
<g>
	<g>
		<path id="bpsGAEbEF" class="st7" d="M86.9,51.7l8.5,23.6l-3,2.5L83.7,53l-0.3-0.8l0,0l-26.9,1.1l0,0l-12.3,0.5l-16.6,0.7L45,53.1
			l12.8-1h0l28.4-2.3l0,0L86.9,51.7z"/>
	</g>
	<g>
		<g>
			<path id="bpsGAEbEF_00000121969794397021725700000008520044935879743906_" class="st1" d="M86.9,51.7l8.5,23.6l-3,2.5L83.7,53
				l-0.3-0.8l0,0l-26.9,1.1l0,0l-12.3,0.5l-16.6,0.7L45,53.1l12.8-1h0l28.4-2.3l0,0L86.9,51.7z"/>
		</g>
	</g>
</g>
<g>
	<g>
		<path id="d23ffIUacg" class="st8" d="M86.9,51.7L94,44l-0.2-0.5l-7.6,6.3L86.9,51.7z"/>
	</g>
	<g>
		<g>
			<path id="d23ffIUacg_00000116232590237958115740000011539174197512206767_" class="st1" d="M86.9,51.7L94,44l-0.2-0.5l-7.6,6.3
				L86.9,51.7z"/>
		</g>
	</g>
</g>
<g>
	<g>
		<path id="b688rlEmmG" class="st8" d="M61.1,70.9l22.4-18.6l0.3,0.8C71.7,65.5,65,72.5,63.6,73.8c0,0,5.5,19.4,5.4,19.2
			C69,92.9,60,74.8,60,74.8c-1.3-0.2-8.1-1.5-20.1-3.8L61.1,70.9z"/>
	</g>
	<g>
		<g>
			<path id="b688rlEmmG_00000041278193260345921750000003919204559116878752_" class="st1" d="M61.1,70.9l22.4-18.6l0.3,0.8
				C71.7,65.5,65,72.5,63.6,73.8c0,0,5.5,19.4,5.4,19.2C69,92.9,60,74.8,60,74.8c-1.3-0.2-8.1-1.5-20.1-3.8L61.1,70.9z"/>
		</g>
	</g>
</g>
<g>
	<g>
		<path id="eycgwM7Ii" class="st6" d="M3.6,33.5c-1,1.5-1.7,3.2-2.1,4.8c-0.3,1.1-0.4,2.3-0.5,3.4c-0.1,2.5,0.3,5.1,1.1,7.5
			C5.1,57.8,13.2,64.6,21.5,63c1.2-0.2,2.4-0.5,3.6-0.9C38.1,58.2,55,47.2,55,47.2S20.9,26,7.5,30.5C5.8,31.1,4.5,32.1,3.6,33.5z
			 M16.9,48.9c-0.1-0.3-0.1-0.6-0.1-1c0,0,0,0,0,0c0-0.1,0-0.1,0-0.2c-0.2-2.9,0.8-4.7,2.6-5.6c7.7-4,29.8,7.5,29.8,7.5
			S22.3,62,17.5,50.7C17.3,50.2,17.1,49.6,16.9,48.9z"/>
	</g>
	<g>
		<g>
			<path id="eycgwM7Ii_00000071541747233129648860000005150961710323460239_" class="st1" d="M3.6,33.5c-1,1.5-1.7,3.2-2.1,4.8
				c-0.3,1.1-0.4,2.3-0.5,3.4c-0.1,2.5,0.3,5.1,1.1,7.5C5.1,57.8,13.2,64.6,21.5,63c1.2-0.2,2.4-0.5,3.6-0.9
				C38.1,58.2,55,47.2,55,47.2S20.9,26,7.5,30.5C5.8,31.1,4.5,32.1,3.6,33.5z M16.9,48.9c-0.1-0.3-0.1-0.6-0.1-1c0,0,0,0,0,0
				c0-0.1,0-0.1,0-0.2c-0.2-2.9,0.8-4.7,2.6-5.6c7.7-4,29.8,7.5,29.8,7.5S22.3,62,17.5,50.7C17.3,50.2,17.1,49.6,16.9,48.9z"/>
		</g>
	</g>
</g>
<g>
	<g>
		<path id="a8SNsjSH9j" class="st5" d="M25.1,62.1c-7.5-4.2-8.2-13.4-8.3-14.2C18.3,63.9,55,47.2,55,47.2
			C49,50.2,38.1,58.2,25.1,62.1z"/>
	</g>
	<g>
		<g>
			<path id="a8SNsjSH9j_00000108267043738901893850000008831970432024446339_" class="st1" d="M25.1,62.1
				c-7.5-4.2-8.2-13.4-8.3-14.2C18.3,63.9,55,47.2,55,47.2C49,50.2,38.1,58.2,25.1,62.1z"/>
		</g>
	</g>
</g>
<g>
	<g>
		<path id="a4pIYLlBNv" class="st13" d="M16.8,47.7C15.3,46.7,3,39.3,1.5,38.4c0.4-1.7,1.1-3.3,2.1-4.8c0.9-1.5,2.3-2.4,3.9-3
			c0.8,0.8,4.7,4.6,11.9,11.5C17.5,43.9,16.7,45.7,16.8,47.7z"/>
	</g>
	<g>
		<g>
			<path id="a4pIYLlBNv_00000091716483437627263560000001267010200995822480_" class="st1" d="M16.8,47.7C15.3,46.7,3,39.3,1.5,38.4
				c0.4-1.7,1.1-3.3,2.1-4.8c0.9-1.5,2.3-2.4,3.9-3c0.8,0.8,4.7,4.6,11.9,11.5C17.5,43.9,16.7,45.7,16.8,47.7z"/>
		</g>
	</g>
</g>
<g>
	<g>
		<path id="b1oulKdkSY" class="st6" d="M85.9,36.6c1.1-0.7,2.1-1.4,3-2.1c6.7-5.2,6.9-15.8,2.4-23.6c-1.3-2.2-2.9-4.2-4.9-5.8
			c-0.9-0.7-1.9-1.3-2.9-1.9c-1.5-0.8-3.2-1.3-5-1.6c-1.7-0.3-3.3,0.1-4.8,1C61.5,9.7,55,49.3,55,49.3
			C61.2,46.7,74.4,43.8,85.9,36.6z M74.6,19.1c1.9-0.7,3.8-0.3,5.9,1.8c0,0,0.1,0.1,0.1,0.1c0,0,0,0,0,0c0.2,0.2,0.4,0.5,0.6,0.7
			c0.4,0.5,0.8,1.1,1,1.6c5.3,11.1-21.7,23.1-21.7,23.1C63.4,41,66.5,22.2,74.6,19.1z"/>
	</g>
	<g>
		<g>
			<path id="b1oulKdkSY_00000022518113559773895600000009614471855531683004_" class="st1" d="M85.9,36.6c1.1-0.7,2.1-1.4,3-2.1
				c6.7-5.2,6.9-15.8,2.4-23.6c-1.3-2.2-2.9-4.2-4.9-5.8c-0.9-0.7-1.9-1.3-2.9-1.9c-1.5-0.8-3.2-1.3-5-1.6c-1.7-0.3-3.3,0.1-4.8,1
				C61.5,9.7,55,49.3,55,49.3C61.2,46.7,74.4,43.8,85.9,36.6z M74.6,19.1c1.9-0.7,3.8-0.3,5.9,1.8c0,0,0.1,0.1,0.1,0.1c0,0,0,0,0,0
				c0.2,0.2,0.4,0.5,0.6,0.7c0.4,0.5,0.8,1.1,1,1.6c5.3,11.1-21.7,23.1-21.7,23.1C63.4,41,66.5,22.2,74.6,19.1z"/>
		</g>
	</g>
</g>
<g>
	<g>
		<path id="e2S1UOtqKZ" class="st5" d="M85.9,36.6c1.8-8.4-4.7-15-5.2-15.6C91.7,32.6,55,49.3,55,49.3
			C61.2,46.7,74.4,43.8,85.9,36.6z"/>
	</g>
	<g>
		<g>
			<path id="e2S1UOtqKZ_00000142159858407655185140000014960668730198817431_" class="st1" d="M85.9,36.6c1.8-8.4-4.7-15-5.2-15.6
				C91.7,32.6,55,49.3,55,49.3C61.2,46.7,74.4,43.8,85.9,36.6z"/>
		</g>
	</g>
</g>
<g>
	<g>
		<path id="b26vwbdX0J" class="st13" d="M80.5,20.8c0.3-1.8,2.7-15.9,3-17.6c-1.5-0.8-3.2-1.3-5-1.6c-1.7-0.3-3.3,0.1-4.8,1
			c0.1,1.1,0.4,6.6,0.9,16.5C77.2,18.8,79.1,19.4,80.5,20.8z"/>
	</g>
	<g>
		<g>
			<path id="b26vwbdX0J_00000070108449318719324240000002130108753517551787_" class="st1" d="M80.5,20.8c0.3-1.8,2.7-15.9,3-17.6
				c-1.5-0.8-3.2-1.3-5-1.6c-1.7-0.3-3.3,0.1-4.8,1c0.1,1.1,0.4,6.6,0.9,16.5C77.2,18.8,79.1,19.4,80.5,20.8z"/>
		</g>
	</g>
</g>
<g>
	<g>
		<path id="ajaEwHgQT" class="st13" d="M91.4,10.9c-1.3-2.2-2.9-4.2-4.9-5.8c-0.3,1.1-2,6.7-5.1,16.7l1,1.6
			C87.8,15.9,90.8,11.7,91.4,10.9z"/>
	</g>
	<g>
		<g>
			<path id="ajaEwHgQT_00000059992860076262406930000011767412424312300672_" class="st1" d="M91.4,10.9c-1.3-2.2-2.9-4.2-4.9-5.8
				c-0.3,1.1-2,6.7-5.1,16.7l1,1.6C87.8,15.9,90.8,11.7,91.4,10.9z"/>
		</g>
	</g>
</g>
<g>
	<g>
		<path id="b10Wii0Ap" class="st6" d="M48.2,53.7c-0.7-1.9-0.6-4.1-0.3-5.9c0.3-1.9,0.9-3.3,0.9-3.3c3.6-3.1,6.1-3.1,6.1-3.1
			s5.2,2.1,7.1,4.3c0.6,0.7,0.8,1.4,0.5,2C60.9,50.4,49.7,57.6,48.2,53.7z"/>
	</g>
	<g>
		<g>
			<path id="b10Wii0Ap_00000109725436592445105260000016123426673158848142_" class="st1" d="M48.2,53.7c-0.7-1.9-0.6-4.1-0.3-5.9
				c0.3-1.9,0.9-3.3,0.9-3.3c3.6-3.1,6.1-3.1,6.1-3.1s5.2,2.1,7.1,4.3c0.6,0.7,0.8,1.4,0.5,2C60.9,50.4,49.7,57.6,48.2,53.7z"/>
		</g>
	</g>
</g>
<g>
	<g>
		<path id="buf0vaERg" class="st5" d="M48.2,53.7c-0.7-1.9-0.6-4.1-0.3-5.9c0.2,0.5,0.3,0.9,0.5,1.3c0.6,0.9,1.5,1.7,2.6,1.9
			c1.1,0.2,2.1-0.2,3.1-0.6c2.5-1,4.9-2.4,7.1-4.2c0.2-0.2,0.5-0.4,0.7-0.6c0.6,0.7,0.8,1.4,0.5,2C60.9,50.4,49.7,57.6,48.2,53.7z"
			/>
	</g>
	<g>
		<g>
			<path id="buf0vaERg_00000174582026252093254980000012353610785048042151_" class="st1" d="M48.2,53.7c-0.7-1.9-0.6-4.1-0.3-5.9
				c0.2,0.5,0.3,0.9,0.5,1.3c0.6,0.9,1.5,1.7,2.6,1.9c1.1,0.2,2.1-0.2,3.1-0.6c2.5-1,4.9-2.4,7.1-4.2c0.2-0.2,0.5-0.4,0.7-0.6
				c0.6,0.7,0.8,1.4,0.5,2C60.9,50.4,49.7,57.6,48.2,53.7z"/>
		</g>
	</g>
</g>
<g>
	<g>
		<path id="b5mm5onyif" class="st13" d="M50.6,47.8c0.6,0.1,1.2,0.1,1.8,0c1.4-0.2,2.8-0.8,4-1.6c0.6-0.4,1.2-0.9,1.5-1.5
			c0.3-0.6,0.3-1.5-0.2-2c-0.9-0.9-2.9-0.7-4-0.5c-1.7,0.4-5.4,2.2-4.4,4.5C49.4,47.3,50,47.7,50.6,47.8z"/>
	</g>
	<g>
		<g>
			<path id="b5mm5onyif_00000173149360526467309410000006288762171990150839_" class="st1" d="M50.6,47.8c0.6,0.1,1.2,0.1,1.8,0
				c1.4-0.2,2.8-0.8,4-1.6c0.6-0.4,1.2-0.9,1.5-1.5c0.3-0.6,0.3-1.5-0.2-2c-0.9-0.9-2.9-0.7-4-0.5c-1.7,0.4-5.4,2.2-4.4,4.5
				C49.4,47.3,50,47.7,50.6,47.8z"/>
		</g>
	</g>
</g>
</svg>
