<svg width="78" height="76" viewBox="0 0 78 76" fill="none" xmlns="http://www.w3.org/2000/svg">
<circle opacity="0.1" cx="39" cy="38" r="38" fill="#07BEA7"/>
<path d="M65.986 9.22345L30.6659 44.5436C29.7139 45.4956 28.1703 45.4956 27.2183 44.5436L12.014 29.3392L0 41.3532L22.9349 64.2884C24.5281 65.8816 26.6889 66.7766 28.942 66.7766C31.1948 66.7766 33.3558 65.8815 34.9489 64.2884L78 21.2373L65.986 9.22345Z" fill="#07BEA7"/>
<g opacity="0.1">
<path opacity="0.5" d="M74.027 17.2642L28.5782 62.7132C27.3207 63.9705 25.7396 64.828 24.0312 65.2102C25.4576 66.221 27.1707 66.7763 28.942 66.7763C31.1948 66.7763 33.3558 65.8812 34.9489 64.2881L78 21.237L74.027 17.2642Z" fill="black"/>
</g>
</svg>
