<svg xmlns="http://www.w3.org/2000/svg" width="39.199" height="35" viewBox="0 0 39.199 35"><defs><style>.a{fill:#fdc137;}</style></defs><path class="a" d="M695.4,2555.339l-1.447-3.091a2.04,2.04,0,0,1,1-2.729,12.125,12.125,0,0,0,5.037-3.814,13.571,13.571,0,0,0,2.228-7.776h-5.85a2.022,2.022,0,0,1-2.01-2.033v-12.363a2.022,2.022,0,0,1,2.01-2.033H708.59a2.022,2.022,0,0,1,2.01,2.033v9.72a40.524,40.524,0,0,1-1.242,11.256,17.2,17.2,0,0,1-4.6,7.4,22.328,22.328,0,0,1-6.742,4.424,2,2,0,0,1-2.617-.993Zm-22.365-.008-1.444-3.083a2.04,2.04,0,0,1,1-2.729,12.125,12.125,0,0,0,5.037-3.814,13.565,13.565,0,0,0,2.228-7.776h-5.85A2.022,2.022,0,0,1,672,2535.9v-12.363a2.022,2.022,0,0,1,2.01-2.033h12.222a2.023,2.023,0,0,1,2.011,2.033v9.72A40.433,40.433,0,0,1,687,2544.538a17.105,17.105,0,0,1-4.623,7.369,22.716,22.716,0,0,1-6.709,4.416,2,2,0,0,1-2.625-.993Z" transform="translate(-671.4 -2521.5)"/></svg>