<?xml version="1.0" encoding="utf-8"?><svg width="3468" height="2324" viewBox="0 0 3468 2324" xmlns="http://www.w3.org/2000/svg" xmlns:xlink="http://www.w3.org/1999/xlink"><svg id="arrow" viewBox="0 0 10 7" width="10" height="7" xmlns="http://www.w3.org/2000/svg"><style>.aast0{fill:#fff}</style><path class="aast0" d="M9.6 3.5c0 .3-.1.5-.3.7L7 6.5c-.4.4-1 .4-1.4 0s-.4-1 0-1.4l1.6-1.6-1.6-1.6c-.4-.4-.4-1 0-1.4s1-.4 1.4 0l2.3 2.3c.2.2.3.5.3.7z"/><path class="aast0" d="M9 3.5c0 .6-.4 1-1 1H1.4c-.6 0-1-.4-1-1s.4-1 1-1H8c.5 0 1 .5 1 1z"/></svg><svg width="24" height="20" viewBox="0 0 24 20" id="arrow_left" x="10" y="7" xmlns="http://www.w3.org/2000/svg"><defs><style>.abcls-1{fill:#32424b;fill-rule:evenodd}</style></defs><path id="abarrow_left" class="abcls-1" d="M362.651 2516.11l.037.01h-16.06l5.049-5.08a1.3 1.3 0 0 0 .383-.93 1.339 1.339 0 0 0-.383-.94l-.786-.79a1.322 1.322 0 0 0-1.855 0l-8.654 8.69a1.29 1.29 0 0 0-.383.93 1.307 1.307 0 0 0 .383.93l8.654 8.69a1.322 1.322 0 0 0 1.855 0l.786-.79a1.315 1.315 0 0 0 .383-.93 1.275 1.275 0 0 0-.383-.92l-5.106-5.1h16.1a1.365 1.365 0 0 0 1.331-1.35v-1.12a1.338 1.338 0 0 0-1.351-1.3z" transform="translate(-340 -2508)"/></svg><svg width="24" height="20" viewBox="0 0 24 20" id="arrow_left_hover" x="34" y="27" xmlns="http://www.w3.org/2000/svg"><defs><style>.accls-1{fill:#fec137;fill-rule:evenodd}</style></defs><path id="acarrow_left:hover" class="accls-1" d="M362.651 2516.11l.037.01h-16.06l5.049-5.08a1.3 1.3 0 0 0 .383-.93 1.339 1.339 0 0 0-.383-.94l-.786-.79a1.322 1.322 0 0 0-1.855 0l-8.654 8.69a1.29 1.29 0 0 0-.383.93 1.307 1.307 0 0 0 .383.93l8.654 8.69a1.322 1.322 0 0 0 1.855 0l.786-.79a1.315 1.315 0 0 0 .383-.93 1.275 1.275 0 0 0-.383-.92l-5.106-5.1h16.1a1.365 1.365 0 0 0 1.331-1.35v-1.12a1.338 1.338 0 0 0-1.351-1.3z" transform="translate(-340 -2508)"/></svg><svg id="arrow_white" viewBox="0 0 10 7" width="10" height="7" x="58" y="47" xmlns="http://www.w3.org/2000/svg"><style>.adst0{fill:#fff}</style><path class="adst0" d="M9.6 3.5c0 .3-.1.5-.3.7L7 6.5c-.4.4-1 .4-1.4 0s-.4-1 0-1.4l1.6-1.6-1.6-1.6c-.4-.4-.4-1 0-1.4s1-.4 1.4 0l2.3 2.3c.2.2.3.5.3.7z"/><path class="adst0" d="M9 3.5c0 .6-.4 1-1 1H1.4c-.6 0-1-.4-1-1s.4-1 1-1H8c.5 0 1 .5 1 1z"/></svg><svg width="11.7" height="9" viewBox="0 0 11.7 9" id="check-red-list" x="68" y="54" xmlns="http://www.w3.org/2000/svg"><defs><style>.aea{fill:#cd3838}</style></defs><path class="aea" d="M.135 4.95a.435.435 0 0 1 0-.63l.63-.63a.435.435 0 0 1 .63 0l.045.045L3.915 6.39a.217.217 0 0 0 .315 0L10.26.135h.04a.435.435 0 0 1 .63 0l.63.63a.435.435 0 0 1 0 .63l-7.2 7.47a.435.435 0 0 1-.63 0L.225 5.085l-.09-.135z"/></svg><svg width="12" height="9" viewBox="0 0 12 9" id="check_grey" x="80" y="63" xmlns="http://www.w3.org/2000/svg"><defs><style>.afcls-1{fill:#d9d9d9;fill-rule:evenodd}</style></defs><path id="afForma_1_копия_2" data-name="Forma 1 копия 2" class="afcls-1" d="M684.782 3093.24l-1.053-1.03a.765.765 0 0 0-1.053 0l-5.077 4.98-2.276-2.24a.764.764 0 0 0-1.052 0l-1.053 1.03a.724.724 0 0 0-.217.52.686.686 0 0 0 .217.51l2.8 2.75 1.053 1.03a.764.764 0 0 0 1.052 0l1.053-1.03 5.6-5.49a.685.685 0 0 0 .216-.51.707.707 0 0 0-.21-.52z" transform="translate(-673 -3092)"/></svg><svg width="9" height="7" viewBox="0 0 9 7" id="check_red" x="92" y="72" xmlns="http://www.w3.org/2000/svg"><defs><style>.agcls-1{fill:#c33;fill-rule:evenodd}</style></defs><path id="agchech_red" class="agcls-1" d="M400.836 877.967l-.789-.8a.555.555 0 0 0-.79 0l-3.808 3.87-1.706-1.738a.555.555 0 0 0-.79 0l-.789.8a.575.575 0 0 0 0 .8l2.1 2.132.79.8a.554.554 0 0 0 .789 0l.79-.8 4.2-4.265a.574.574 0 0 0 .003-.799z" transform="translate(-392 -877)"/></svg><svg width="9" height="7" viewBox="0 0 9 7" id="check_yellow" x="101" y="79" xmlns="http://www.w3.org/2000/svg"><defs><style>.ahcls-1{fill:#fec137;fill-rule:evenodd}</style></defs><path id="ahcheck_yellow" class="ahcls-1" d="M765.836 877.967l-.789-.8a.555.555 0 0 0-.79 0l-3.808 3.87-1.706-1.738a.555.555 0 0 0-.79 0l-.789.8a.575.575 0 0 0 0 .8l2.1 2.132.79.8a.554.554 0 0 0 .789 0l.79-.8 4.2-4.265a.574.574 0 0 0 .003-.799z" transform="translate(-757 -877)"/></svg><svg width="40" height="63" viewBox="0 0 40 63" id="guarantee-1" x="110" y="86" xmlns="http://www.w3.org/2000/svg"><defs><style>.aicls-1{fill:#cd3838;fill-rule:evenodd}</style></defs><path id="ai_1" data-name="1" class="aicls-1" d="M431.15 3529.96a.925.925 0 1 1-.923.93.929.929 0 0 1 .923-.93zm.007-2.64a.92.92 0 1 1-.923.92.92.92 0 0 1 .923-.92zm-.007 17.32a.925.925 0 1 1-.923.93.929.929 0 0 1 .923-.93zm.007-2.64a.925.925 0 1 1-.923.92.92.92 0 0 1 .923-.92zm-.007 17.33a.92.92 0 1 1-.923.92.92.92 0 0 1 .923-.92zm.007-2.65a.925.925 0 1 1-.923.92.92.92 0 0 1 .923-.92zm31.443-25.95h-3.262v-8.55c0-1.52-1.791-2.67-5.477-3.51a53.823 53.823 0 0 0-10.769-1.1v-.93a3.385 3.385 0 1 0-1.846 0v.93a53.839 53.839 0 0 0-10.769 1.1c-3.686.84-5.477 1.99-5.477 3.51v9.11c0 1.14 1.012 2.08 3.08 2.82-2.066.75-3.08 1.69-3.08 2.84v4.55a.923.923 0 0 0 1.846 0v-2.26a15.535 15.535 0 0 0 3.631 1.22 55.476 55.476 0 0 0 11.692 1.1c.438 0 .87 0 1.292-.01v7.26c-.422.01-.853.01-1.292.01a54.6 54.6 0 0 1-10.983-.99c-3.936-.85-4.338-1.78-4.34-1.78v-.61a.923.923 0 1 0-1.846 0v.61c0 1.15 1.012 2.08 3.08 2.83-2.066.75-3.08 1.68-3.08 2.83v9.11c0 1.87 2.8 3.23 8.329 4.03.045 0 .09.01.134.01a.925.925 0 0 0 .131-1.84c-5.339-.77-6.682-1.94-6.748-2.2v-6.81a15.58 15.58 0 0 0 3.631 1.21 62.133 62.133 0 0 0 23.384 0 15.547 15.547 0 0 0 3.631-1.21v6.8c0 .01-.4.94-4.341 1.78a54.529 54.529 0 0 1-10.983 1 66.12 66.12 0 0 1-4.947-.18.923.923 0 1 0-.136 1.84c1.345.1 2.742.16 4.16.17v.94a3.385 3.385 0 1 0 1.846 0v-.93a53.842 53.842 0 0 0 10.77-1.1c3.685-.84 5.477-1.99 5.477-3.51v-8.55h3.262a2.4 2.4 0 0 0 2.4-2.4v-16.74a2.4 2.4 0 0 0-2.4-2.4zm-18.892 38.89a1.539 1.539 0 1 1-1.539-1.54 1.538 1.538 0 0 1 1.539 1.54zm-3.077-56.24a1.539 1.539 0 1 1 1.538 1.54 1.538 1.538 0 0 1-1.538-1.54zm-13.785 17.91v-6.81a15.58 15.58 0 0 0 3.631 1.21 55.418 55.418 0 0 0 11.692 1.11 63.094 63.094 0 0 0 8.808-.58.924.924 0 1 0-.263-1.83 60.872 60.872 0 0 1-8.545.56 54.6 54.6 0 0 1-10.983-.99c-3.707-.8-4.279-1.67-4.336-1.78.057-.11.629-.98 4.336-1.78a53.3 53.3 0 0 1 10.06-.98v2.76a.923.923 0 0 0 1.846 0v-2.76a53.291 53.291 0 0 1 10.059.98c3.734.81 4.288 1.69 4.338 1.78-.074.2-.782.86-3.189 1.5a.926.926 0 0 0 .476 1.79 13.411 13.411 0 0 0 2.716-1v6.26h-11.631a2.4 2.4 0 0 0-2.4 2.4v.91c-.422.01-.853.02-1.292.02a54.536 54.536 0 0 1-10.983-1c-3.936-.84-4.338-1.77-4.34-1.77zm15.323 8.43a54.536 54.536 0 0 1-10.983-1c-3.707-.8-4.279-1.67-4.336-1.77.06-.12.694-1.07 4.893-1.89a59.708 59.708 0 0 0 10.426.84c.438 0 .87 0 1.293-.01v3.81a54.4 54.4 0 0 1-1.293.02zm10.983 13.77a61.417 61.417 0 0 1-21.966 0c-3.708-.8-4.279-1.67-4.336-1.78.06-.11.694-1.07 4.893-1.89a58.685 58.685 0 0 0 10.426.85c.485 0 .962-.01 1.427-.02a2.406 2.406 0 0 0 2.265 1.62h10.963a12.985 12.985 0 0 1-3.672 1.22zm10-3.62a.555.555 0 0 1-.554.55h-16.737a.554.554 0 0 1-.553-.55v-16.74a.554.554 0 0 1 .553-.55H462.6a.555.555 0 0 1 .554.55v16.74zm-5.354-11.02h-.062v-1.66a3.508 3.508 0 0 0-7.015 0v1.66h-.062a1.668 1.668 0 0 0-1.661 1.67v5.66a1.666 1.666 0 0 0 1.661 1.66h7.141a1.666 1.666 0 0 0 1.661-1.66v-5.66a1.668 1.668 0 0 0-1.661-1.67zm-5.231-1.66a1.662 1.662 0 0 1 3.323 0v1.66h-3.323v-1.66zm5.046 8.8h-6.769v-5.29h6.769v5.29zm-3.384-4.18a.92.92 0 0 0-.923.92v1.6a.923.923 0 0 0 1.846 0v-1.6a.92.92 0 0 0-.921-.92z" transform="translate(-425 -3510)"/></svg><svg width="50" height="50" viewBox="0 0 50 50" id="guarantee-2" x="150" y="149" xmlns="http://www.w3.org/2000/svg"><defs><style>.ajcls-1{fill:#cd3838;fill-rule:evenodd}</style></defs><path id="aj_2" data-name="2" class="ajcls-1" d="M765.833 3524.5H755a.831.831 0 0 0-.833.83.839.839 0 0 0 .833.84h10.833a2.5 2.5 0 0 1 2.5 2.5V3552h-46.666v-23.33a2.5 2.5 0 0 1 2.5-2.5H735a.839.839 0 0 0 .833-.84.831.831 0 0 0-.833-.83h-10.833a4.173 4.173 0 0 0-4.167 4.17v27.5a4.165 4.165 0 0 0 4.167 4.16H737.5v1.67h-4.167a2.5 2.5 0 0 0-2.5 2.5v1.67a.831.831 0 0 0 .833.83h26.667a.831.831 0 0 0 .833-.83v-1.67a2.5 2.5 0 0 0-2.5-2.5H752.5v-1.67h13.333a4.165 4.165 0 0 0 4.167-4.16v-27.5a4.173 4.173 0 0 0-4.167-4.17zm-9.166 39.17a.831.831 0 0 1 .833.83v.83h-25v-.83a.831.831 0 0 1 .833-.83h23.334zm-17.5-1.67v-1.67h11.666v1.67h-11.666zm29.166-5.83a2.5 2.5 0 0 1-2.5 2.5h-41.666a2.5 2.5 0 0 1-2.5-2.5v-2.5h46.666v2.5zm-27.5-16.67h8.334a4.172 4.172 0 0 0 4.166-4.17v-7.5a1.661 1.661 0 0 0-1.667-1.66v-2.5a6.667 6.667 0 1 0-13.333 0v2.5a1.662 1.662 0 0 0-1.667 1.66v7.5a4.173 4.173 0 0 0 4.167 4.17zm-.833-15.83a5 5 0 0 1 10 0v2.5h-10v-2.5zm-1.667 10.83H740a.831.831 0 0 0 .833-.83.839.839 0 0 0-.833-.84h-1.667v-1.66H740a.839.839 0 0 0 .833-.84.831.831 0 0 0-.833-.83h-1.667v-1.67h13.333v1.67H750a.831.831 0 0 0-.833.83.839.839 0 0 0 .833.84h1.667v1.66H750a.839.839 0 0 0-.833.84.831.831 0 0 0 .833.83h1.667v.83a2.5 2.5 0 0 1-2.5 2.5h-8.334a2.5 2.5 0 0 1-2.5-2.5v-.83zm5.834-.15v.98a.833.833 0 1 0 1.666 0v-.98a2.5 2.5 0 1 0-1.666 0zm.833-3.18a.83.83 0 1 1-.833.83.831.831 0 0 1 .833-.83zm-10.833 11.66a.833.833 0 1 0 1.666 0 1.661 1.661 0 0 0-1.666-1.66h-3.334a1.662 1.662 0 0 0-1.667 1.66v5.84a1.662 1.662 0 0 0 1.667 1.66h3.334a1.661 1.661 0 0 0 1.666-1.66v-2.5a.839.839 0 0 0-.833-.84h-1.667a.839.839 0 0 0-.833.84.831.831 0 0 0 .833.83h.834v1.67h-3.334v-5.84h3.334zm4.166-1.66a.831.831 0 0 0-.833.83v7.5a.831.831 0 0 0 .833.83h2.5a3.331 3.331 0 0 0 3.333-3.33v-2.5a3.331 3.331 0 0 0-3.333-3.33h-2.5zm4.167 3.33v2.5a1.67 1.67 0 0 1-1.667 1.67h-1.667v-5.84h1.667a1.67 1.67 0 0 1 1.667 1.67zm7.5-3.33h-3.333a.831.831 0 0 0-.834.83v7.5a.834.834 0 0 0 1.667 0v-2.5h2.5a2.5 2.5 0 0 0 2.5-2.5v-.83a2.5 2.5 0 0 0-2.5-2.5zm.833 3.33a.831.831 0 0 1-.833.83h-2.5v-2.5h2.5a.839.839 0 0 1 .833.84v.83zm4.167 5.83a.831.831 0 0 0 .833-.83v-2.5h2.5a.831.831 0 0 1 .833.83v1.67a.834.834 0 0 0 1.667 0v-1.67a2.47 2.47 0 0 0-.65-1.66 2.5 2.5 0 0 0 .65-1.67v-.83a2.5 2.5 0 0 0-2.5-2.5H755a.831.831 0 0 0-.833.83v7.5a.831.831 0 0 0 .833.83zm.833-7.5h2.5a.839.839 0 0 1 .833.84v.83a.831.831 0 0 1-.833.83h-2.5v-2.5zM725 3531.17h.833a.84.84 0 0 0 .834-.84.831.831 0 0 0-.834-.83H725a.831.831 0 0 0-.833.83.839.839 0 0 0 .833.84zm6.667 0a.839.839 0 0 0 .833-.84.831.831 0 0 0-.833-.83h-2.5a.831.831 0 0 0-.834.83.839.839 0 0 0 .834.84h2.5zM725 3534.5h6.667a.831.831 0 0 0 .833-.83.839.839 0 0 0-.833-.84H725a.839.839 0 0 0-.833.84.831.831 0 0 0 .833.83zm40-3.33a.839.839 0 0 0 .833-.84.831.831 0 0 0-.833-.83h-.833a.831.831 0 0 0-.834.83.839.839 0 0 0 .834.84H765zm-6.667 0h2.5a.839.839 0 0 0 .833-.84.831.831 0 0 0-.833-.83h-2.5a.831.831 0 0 0-.833.83.839.839 0 0 0 .833.84zm0 3.33H765a.831.831 0 0 0 .833-.83.839.839 0 0 0-.833-.84h-6.667a.839.839 0 0 0-.833.84.831.831 0 0 0 .833.83z" transform="translate(-720 -3517)"/></svg><svg width="44" height="50" viewBox="0 0 44 50" id="guarantee-3" x="200" y="199" xmlns="http://www.w3.org/2000/svg"><defs><style>.akcls-1{fill:#cd3838;fill-rule:evenodd}</style></defs><path id="ak_3" data-name="3" class="akcls-1" d="M1042.19 3529.34a11.632 11.632 0 1 0-17.77 13.03l.09.06a11.52 11.52 0 0 0 13.22-.03h.01a11.707 11.707 0 0 0 4.45-13.06zm-16.08 12.14a1.425 1.425 0 0 1 .3-.25l2.67-1.31a1.634 1.634 0 0 0 .9-1.45v-.32a1.239 1.239 0 0 0-.68-1.1 3.726 3.726 0 0 1-1.97-2.46.842.842 0 0 0-.55-.58.5.5 0 0 1-.3-.51v-.69a.515.515 0 0 1 .2-.48.838.838 0 0 0 .44-.66 6.39 6.39 0 0 1 .45-1.82 4.6 4.6 0 0 0 .4-1.59 5.17 5.17 0 0 0 2.79.52 2.908 2.908 0 0 1 .3-.01c3.2 0 3.79 1.56 3.94 2.92a.844.844 0 0 0 .44.64.519.519 0 0 1 .27.48v.69a.516.516 0 0 1-.36.51.851.851 0 0 0-.56.59 3.662 3.662 0 0 1-1.9 2.45 1.221 1.221 0 0 0-.68 1.1v.35a1.592 1.592 0 0 0 .88 1.43l2.55 1.32a1.408 1.408 0 0 1 .37.27 9.844 9.844 0 0 1-9.9-.04zm11.29-.91a3.172 3.172 0 0 0-1.01-.81l-2.52-1.26v-.08a5.268 5.268 0 0 0 2.41-3.01 2.2 2.2 0 0 0 1.09-1.91v-.69a2.2 2.2 0 0 0-.77-1.7c-.34-1.91-1.6-4-5.54-4-.14 0-.29 0-.43.01a3.4 3.4 0 0 1-2.15-.49 2.767 2.767 0 0 1-.61-.53.968.968 0 0 0-1.71.7 6.968 6.968 0 0 0 .11.78 2.7 2.7 0 0 1-.23 1.61 7.643 7.643 0 0 0-.53 1.94 2.206 2.206 0 0 0-.7 1.68v.69a2.173 2.173 0 0 0 1.03 1.91 5.391 5.391 0 0 0 2.49 3.02l-2.68 1.32a3.076 3.076 0 0 0-.92.77 9.972 9.972 0 1 1 12.67.05zm18.11 10.25a1.659 1.659 0 0 0-1.17-.49h-.83v-2.5a6.66 6.66 0 0 0-3.32-5.76v-22.57a2.5 2.5 0 0 0-2.49-2.5h-33.21a2.492 2.492 0 0 0-2.49 2.5v41.67a2.492 2.492 0 0 0 2.49 2.5h23.81a5.83 5.83 0 0 0 5.25 3.33h6.64a5.819 5.819 0 0 0 5.81-5.83V3552a1.64 1.64 0 0 0-.49-1.18zm-3.66-2.99v2.5h-9.96v-2.5a4.98 4.98 0 1 1 9.96 0zm-14.11 4.17v9.17a5.793 5.793 0 0 0 .06.83h-23.31a.828.828 0 0 1-.83-.83v-41.67a.828.828 0 0 1 .83-.83h33.21a.828.828 0 0 1 .83.83v21.89a6.6 6.6 0 0 0-5.74 1.16 6.676 6.676 0 0 0-2.56 5.28v2.5h-.83a1.664 1.664 0 0 0-1.66 1.67zm16.6 1.67h-1.66a.83.83 0 0 0 0 1.66h1.66v1.67h-1.66a.828.828 0 0 0-.83.83.837.837 0 0 0 .83.84h1.66v1.66h-1.66a.837.837 0 0 0-.83.84.828.828 0 0 0 .83.83h1.58a4.162 4.162 0 0 1-4.07 3.33h-6.64a4.162 4.162 0 0 1-4.07-3.33h1.58a.828.828 0 0 0 .83-.83.837.837 0 0 0-.83-.84h-1.66v-1.66h1.66a.837.837 0 0 0 .83-.84.828.828 0 0 0-.83-.83h-1.66v-1.67h1.66a.83.83 0 1 0 0-1.66h-1.66V3552h14.94v1.67zm-8.3 5.68v1.82a.83.83 0 1 0 1.66 0v-1.82a2.5 2.5 0 1 0-1.66 0zm.83-3.18a.83.83 0 1 1-.83.83.828.828 0 0 1 .83-.83zm-10.79-9.17h-9.97a.828.828 0 0 0-.83.83.837.837 0 0 0 .83.84h9.97a.843.843 0 0 0 .83-.84.834.834 0 0 0-.83-.83zm-.83 8.33h-9.14a.837.837 0 0 0-.83.84.828.828 0 0 0 .83.83h9.14a.834.834 0 0 0 .83-.83.843.843 0 0 0-.83-.84zm0-4.16h-16.61a.83.83 0 0 0 0 1.66h16.61a.83.83 0 0 0 0-1.66z" transform="translate(-1012 -3517)"/></svg><svg width="50" height="50" viewBox="0 0 50 50" id="guarantee-4" x="244" y="249" xmlns="http://www.w3.org/2000/svg"><defs><style>.alcls-1{fill:#cd3838;fill-rule:evenodd}</style></defs><path id="al_4" data-name="4" class="alcls-1" d="M1269.83 3520.33a2.5 2.5 0 1 0 2.5 2.5 2.5 2.5 0 0 0-2.5-2.5zm0 3.34a.837.837 0 0 1-.83-.84.828.828 0 0 1 .83-.83.837.837 0 0 1 .84.83.845.845 0 0 1-.84.84zm6.67-1.67h-1.67a.828.828 0 0 0-.83.83.837.837 0 0 0 .83.84h1.67a.837.837 0 0 0 .83-.84.828.828 0 0 0-.83-.83zm5 0h-1.67a.828.828 0 0 0-.83.83.837.837 0 0 0 .83.84h1.67a.837.837 0 0 0 .83-.84.828.828 0 0 0-.83-.83zm-11.67 13.33a2.5 2.5 0 1 0 2.5 2.5 2.5 2.5 0 0 0-2.5-2.5zm0 3.34a.837.837 0 0 1-.83-.84.828.828 0 0 1 .83-.83.837.837 0 0 1 .84.83.845.845 0 0 1-.84.84zm6.67-1.67h-1.67a.828.828 0 0 0-.83.83.837.837 0 0 0 .83.84h1.67a.837.837 0 0 0 .83-.84.828.828 0 0 0-.83-.83zm5 0h-1.67a.828.828 0 0 0-.83.83.837.837 0 0 0 .83.84h1.67a.837.837 0 0 0 .83-.84.828.828 0 0 0-.83-.83zm-11.67 13.33a2.5 2.5 0 1 0 2.5 2.5 2.5 2.5 0 0 0-2.5-2.5zm0 3.34a.837.837 0 0 1-.83-.84.828.828 0 0 1 .83-.83.837.837 0 0 1 .84.83.845.845 0 0 1-.84.84zm6.67-1.67h-1.67a.828.828 0 0 0-.83.83.837.837 0 0 0 .83.84h1.67a.837.837 0 0 0 .83-.84.828.828 0 0 0-.83-.83zm5 0h-1.67a.828.828 0 0 0-.83.83.837.837 0 0 0 .83.84h1.67a.837.837 0 0 0 .83-.84.828.828 0 0 0-.83-.83zm30-16.67h-5.83v-.83a2.5 2.5 0 0 0-2.5-2.5h-2.5v-3.33h2.5a2.5 2.5 0 0 0 2.5-2.5v-6.67a2.5 2.5 0 0 0-2.5-2.5h-36.67a2.5 2.5 0 0 0-2.5 2.5v6.67a2.5 2.5 0 0 0 2.5 2.5h2.5v3.33h-2.5a2.5 2.5 0 0 0-2.5 2.5v6.67a2.5 2.5 0 0 0 2.5 2.5h2.5v3.33h-2.5a2.5 2.5 0 0 0-2.5 2.5v6.67a2.5 2.5 0 0 0 2.5 2.5h15.83v3.33h-17.5a.828.828 0 0 0-.83.83.837.837 0 0 0 .83.84h31.67a.227.227 0 0 0 .04-.01c.68.59 1.38 1.15 2.11 1.67h-33.82a.837.837 0 0 0-.83.84.828.828 0 0 0 .83.83h36.67a.717.717 0 0 0 .29-.06l.06-.03a.142.142 0 0 0 .06-.02c11.95-6.78 12.09-17.91 12.09-18.38v-10.68a2.5 2.5 0 0 0-2.5-2.5zm-45-8.33a.828.828 0 0 1-.83-.83v-6.67a.828.828 0 0 1 .83-.83h36.67a.828.828 0 0 1 .83.83v6.67a.828.828 0 0 1-.83.83h-36.67zm32.5 1.67v3.33h-28.33v-3.33H1299zm-32.5 13.33a.828.828 0 0 1-.83-.83v-6.67a.828.828 0 0 1 .83-.83h36.67a.828.828 0 0 1 .83.83v.83h-12.5a2.5 2.5 0 0 0-2.5 2.5v4.17h-22.5zm22.5 1.67v3.33h-18.33v-3.33H1289zm-22.5 13.33a.828.828 0 0 1-.83-.83v-6.67a.828.828 0 0 1 .83-.83h22.5a20.427 20.427 0 0 0 2.33 8.33h-24.83zm19.17 5H1284v-3.33h1.67v3.33zm1.66 0v-3.33h4.96a23.5 23.5 0 0 0 2.55 3.33h-7.51zm25-13.49c0 .43-.16 10.39-10.83 16.69-10.67-6.3-10.83-16.26-10.83-16.69v-10.68a.828.828 0 0 1 .83-.83h20a.828.828 0 0 1 .83.83v10.68zm-3.33-9.84a.83.83 0 0 0 0 1.66v8.17c-.01.31-.2 7.76-7.97 13.06a.828.828 0 0 0 .1 1.45.823.823 0 0 0 .84-.08c8.47-5.77 8.69-14.06 8.7-14.42v-8.18a1.664 1.664 0 0 0-1.67-1.66zm-15 9.84v-8.18h9.17a.83.83 0 0 0 0-1.66H1294a1.664 1.664 0 0 0-1.67 1.66v8.18a17.874 17.874 0 0 0 3.49 9.42.855.855 0 0 0 .77.34.836.836 0 0 0 .67-.49.827.827 0 0 0-.09-.83 16.262 16.262 0 0 1-3.17-8.44zm13.09-3.87a.827.827 0 0 0-1.18 0l-6.18 6.18-.97-.97a.835.835 0 0 0-1.18 1.18l1.56 1.56a.845.845 0 0 0 1.18 0l6.77-6.77a.845.845 0 0 0 0-1.18z" transform="translate(-1264 -3517)"/></svg><svg id="logo" viewBox="0 0 135 45" width="135" height="45" x="294" y="299" xmlns="http://www.w3.org/2000/svg"><style>.amst0{fill:#fff}</style><path class="amst0" d="M49.9 13.1l-1.3-3.3h-4.2l-1.3 3.3h-1.2L46 2.8h1l4.1 10.3h-1.2zm-1.7-4.4L47 5.6c-.2-.4-.3-.9-.5-1.5-.1.4-.3.9-.5 1.5l-1.2 3.2h3.4zm5.7 4.4h-1.2V2.8h5.9v1.1H54v3.8h4.4v1.1H54v4.3zm7.6 0h-1.2V2.8h5.9v1.1h-4.6v3.8H66v1.1h-4.4v4.3zm15.6-5.2c0 1.6-.4 2.9-1.3 3.9-.9.9-2 1.4-3.6 1.4-1.5 0-2.7-.5-3.6-1.4-.8-.9-1.3-2.2-1.3-3.9 0-1.7.4-3 1.3-3.9.8-.9 2-1.4 3.6-1.4 1.5 0 2.7.5 3.5 1.4.9 1 1.4 2.3 1.4 3.9zm-8.4 0c0 1.4.3 2.4.9 3.2.6.7 1.5 1.1 2.6 1.1 1.2 0 2-.4 2.6-1.1.6-.7.9-1.8.9-3.2 0-1.4-.3-2.4-.9-3.1-.6-.7-1.5-1.1-2.6-1.1-1.2 0-2.1.4-2.7 1.1-.5.7-.8 1.8-.8 3.1zm11.8.9v4.3h-1.2V2.8h2.9c1.3 0 2.2.2 2.9.7.6.5.9 1.2.9 2.2 0 1.4-.7 2.3-2.1 2.8l2.9 4.6h-1.4l-2.5-4.3h-2.4zm0-1h1.7c.9 0 1.5-.2 1.9-.5.4-.3.6-.8.6-1.5s-.2-1.2-.6-1.5c-.4-.3-1.1-.4-2-.4h-1.6v3.9zm16.2 0c0 1.7-.5 3-1.4 3.9-.9.9-2.3 1.3-4.1 1.3h-2.9V2.8h3.2c1.6 0 2.9.4 3.8 1.3 1 .9 1.4 2.2 1.4 3.7zm-1.2.1c0-1.3-.3-2.4-1-3-.7-.7-1.7-1-3.1-1h-1.8V12h1.5c1.5 0 2.6-.3 3.3-1.1.7-.6 1.1-1.6 1.1-3zm9.8 5.2L104 9.8h-4.2l-1.3 3.3h-1.2l4.2-10.3h1l4.1 10.3h-1.3zm-1.6-4.4l-1.2-3.2c-.2-.4-.3-.9-.5-1.5-.1.4-.3.9-.5 1.5l-1.2 3.2h3.4zm4.4-5.9h3c1.4 0 2.4.2 3 .6.6.4.9 1.1.9 1.9 0 .6-.2 1.1-.5 1.5-.3.4-.9.7-1.5.8v.1c1.6.3 2.4 1.1 2.4 2.5 0 .9-.3 1.6-1 2.2-.6.5-1.5.8-2.7.8H108V2.8zm1.3 4.4h2c.9 0 1.5-.1 1.9-.4.4-.3.6-.7.6-1.3 0-.6-.2-1-.6-1.2-.4-.3-1.1-.4-2-.4h-1.8v3.3zm0 1V12h2.2c.8 0 1.5-.2 1.9-.5.4-.3.6-.8.6-1.5 0-.6-.2-1.1-.7-1.4-.4-.3-1.1-.4-2-.4h-2zm8.2 4.9V2.8h1.2V12h4.6v1.1h-5.8zm13.4 0h-5.9V2.8h5.9v1.1h-4.6v3.3h4.4v1.1h-4.4V12h4.6v1.1z"/><circle class="amst0" cx="30" cy="34" r="1.3"/><path class="amst0" d="M55 26c0 2.6-.6 4.5-1.9 5.9-1.3 1.4-3.2 2.1-5.6 2.1h-1.1v8.8h-4.5V18.5H48c4.6 0 7 2.5 7 7.5zm-8.7 4h.9c1.1 0 1.9-.3 2.5-.9.5-.6.8-1.6.8-3 0-1.3-.2-2.2-.7-2.8-.5-.6-1.3-.9-2.3-.9h-1.1V30zM68 42.7l-1.4-6.1h-6.3l-1.4 6.1h-4.5l6-24.3h6.1l6 24.3H68zm-2.2-10.1L64.5 27c-.1-.3-.3-1.2-.5-2.6-.3-1.4-.4-2.3-.5-2.8-.1 1-.3 2-.5 3.1s-.8 3.8-1.7 7.8h4.5zM87.7 26c0 2.6-.6 4.5-1.9 5.9-1.3 1.4-3.2 2.1-5.6 2.1H79v8.8h-4.5V18.5h6.1c4.7 0 7.1 2.5 7.1 7.5zM79 30h.9c1.1 0 1.9-.3 2.5-.9.5-.6.8-1.6.8-3 0-1.3-.2-2.2-.7-2.8-.5-.6-1.3-.9-2.3-.9H79V30zm22 12.7H90.1V18.5H101v3.9h-6.4v5.8h5.9v3.9h-5.9v6.7h6.4v3.9zm7.6-9.4v9.4h-4.5V18.5h5.9c2.5 0 4.3.6 5.5 1.8 1.2 1.2 1.8 3 1.8 5.4 0 3.1-1 5.2-3.1 6.4l4.7 10.6H114l-3.8-9.4h-1.6zm0-3.9h1.2c1.1 0 1.8-.3 2.3-.9.5-.6.7-1.5.7-2.7 0-1.2-.2-2.1-.7-2.6-.5-.5-1.3-.8-2.3-.8h-1.1v7zm23.7 6.7c0 2.3-.6 4-1.7 5.2-1.1 1.2-2.8 1.8-4.9 1.8-2.1 0-3.9-.4-5.4-1.2v-4.5c1.8 1.2 3.5 1.8 5 1.8.9 0 1.5-.2 1.9-.7.4-.5.7-1.1.7-1.9 0-.8-.3-1.5-.8-2.2-.5-.7-1.4-1.4-2.6-2.2-1-.7-1.8-1.4-2.4-2.1-.5-.7-1-1.4-1.2-2.2-.3-.8-.4-1.8-.4-2.9 0-2.1.6-3.7 1.7-4.9s2.7-1.8 4.6-1.8c1.9 0 3.6.5 5.4 1.6l-1.5 3.6c-.5-.3-1.1-.6-1.7-.8-.6-.2-1.2-.4-1.9-.4s-1.3.2-1.7.7c-.4.5-.6 1.1-.6 2 0 .8.2 1.5.7 2.1.5.6 1.3 1.3 2.5 2.1 1.6 1.1 2.7 2.1 3.3 3.2.7 1 1 2.2 1 3.7zM31.3 29.6h2.8c.5 0 .9-.4.9-.9v-2.8c0-.5-.5-1-1-.9-1.7.4-3.1 1.7-3.5 3.4-.2.7.2 1.2.8 1.2z"/><path class="amst0" d="M34.9 22.7V8.3c0-.4-.1-.7-.4-.9L27.6.5c-.3-.4-.6-.5-.9-.5H1.3C.6 0 0 .6 0 1.3v42.3c0 .8.6 1.4 1.3 1.4h14.6c.7 0 1.3-.6 1.3-1.3v-5.8c0-.4.1-.7.4-.9l6.9-6.9c.3-.3.6-.4.9-.4h2.5c.6 0 1.2-.4 1.3-1.1.4-2.2 2.2-4 4.4-4.5.8-.2 1.3-.7 1.3-1.4zm-10.7 5.5h-5.7c-.4 0-.7-.3-.7-.7 0-.4.3-.7.7-.7h5.7c.4 0 .7.3.7.7 0 .3-.3.7-.7.7zm0-2.8H10.7c-.4 0-.7-.3-.7-.7 0-.4.3-.7.7-.7h13.6c.4 0 .7.3.7.7-.1.4-.4.7-.8.7zm0-2.7H10.7c-.4 0-.7-.3-.7-.7 0-.4.3-.7.7-.7h13.6c.4 0 .7.3.7.7-.1.4-.4.7-.8.7zm0-2.7H10.7c-.4 0-.7-.3-.7-.7 0-.4.3-.7.7-.7h13.6c.4 0 .7.3.7.7-.1.4-.4.7-.8.7zm0-2.7H10.7c-.4 0-.7-.3-.7-.7 0-.4.3-.7.7-.7h13.6c.4 0 .7.3.7.7-.1.4-.4.7-.8.7zm0-2.8H10.7c-.4 0-.7-.3-.7-.7 0-.4.3-.7.7-.7h13.6c.4 0 .7.3.7.7-.1.4-.4.7-.8.7zM33.4 39.9h1.4V45h-1.4zm-1.9 0h.5V45h-.5zm-2.8 0h1.4V45h-1.4zm-4.6 0h1.4V45h-1.4zm2.8 0h.5V45h-.5z"/></svg><svg width="313" height="137" viewBox="0 0 313 137" id="logo_bg" x="429" y="344" xmlns="http://www.w3.org/2000/svg"><defs><style>.ancls-1{fill:#32424b;fill-rule:evenodd}</style></defs><path id="anlogo_bg" class="ancls-1" d="M539 0L413.22 125.931c-17.111 17.131-47.966 14.016-68.916-6.961L226 0h313z" transform="translate(-226)"/></svg><svg id="pdf" viewBox="155 467 40 20" width="40" height="20" x="742" y="481" xmlns="http://www.w3.org/2000/svg"><style>.aost0{fill:#f15642}.aost1{fill:#fff}</style><path class="aost0" d="M195 485.3c0 .9-.8 1.7-1.7 1.7h-36.7c-.9 0-1.7-.8-1.7-1.7v-16.7c0-.9.8-1.7 1.7-1.7h36.7c.9 0 1.7.8 1.7 1.7v16.7z"/><path class="aost1" d="M162.3 473.6c0-.4.3-.9.9-.9h3.1c1.7 0 3.3 1.2 3.3 3.4 0 2.1-1.6 3.3-3.3 3.3H164v1.8c0 .6-.4.9-.9.9-.4 0-.9-.3-.9-.9v-7.6zm1.7.7v3.3h2.2c.9 0 1.6-.8 1.6-1.6 0-.9-.7-1.7-1.6-1.7H164zm8.2 7.7c-.4 0-.9-.2-.9-.8v-7.6c0-.5.5-.8.9-.8h3.1c6.1 0 6 9.2.1 9.2h-3.2zm.8-7.6v6h2.2c3.6 0 3.8-6 0-6H173zm10.3.1v2.1h3.4c.5 0 1 .5 1 .9s-.5.8-1 .8h-3.4v2.8c0 .5-.3.8-.8.8-.6 0-.9-.4-.9-.8v-7.6c0-.5.4-.8.9-.8h4.7c.6 0 .9.3.9.8 0 .4-.3.9-.9.9l-3.9.1z"/></svg><svg width="18" height="18" viewBox="0 0 18 18" id="plus" x="782" y="501" xmlns="http://www.w3.org/2000/svg"><defs><path id="apa" d="M1420 375v-7h-7v-4h7v-7h4v7h7v4h-7v7z"/></defs><use fill="#f8ae05" xlink:href="#apa" transform="translate(-1413 -357)"/></svg><svg width="44.68" height="50" viewBox="0 0 44.68 50" id="price-factor-1" x="800" y="519" xmlns="http://www.w3.org/2000/svg"><defs><style>.aqcls-1{fill:#cd3838;fill-rule:evenodd}</style></defs><path id="aq_1" data-name="1" class="aqcls-1" d="M1251 545.327a3.711 3.711 0 1 0 3.71 3.712 3.712 3.712 0 0 0-3.71-3.712zm0 5.47a1.758 1.758 0 1 1 1.76-1.758 1.762 1.762 0 0 1-1.76 1.761zm-2.58-23.9a.975.975 0 0 0-1.38 0 .967.967 0 0 0 0 1.381.975.975 0 0 0 1.38 0 .967.967 0 0 0 0-1.378zm6.54 0a.975.975 0 0 0-1.38 0 .967.967 0 0 0 0 1.381.975.975 0 0 0 1.38 0 .967.967 0 0 0 0-1.378zm-13.23 21.449a.975.975 0 0 0-1.38 0 .967.967 0 0 0 0 1.381.973.973 0 0 0 .69.286.981.981 0 0 0 .69-1.665zm30.63.5a.97.97 0 0 0 .97-.976v-2.591a4.973 4.973 0 0 0-3.84-4.856l-12.63-2.99v-2.869a8.463 8.463 0 0 0 2.55-4.471 3.319 3.319 0 0 0 .97-6.491v-2.374l4.45-2.257v6.257a2.576 2.576 0 0 0-1.6 2.384v6.419a.971.971 0 0 0 .97.977h3.2a.979.979 0 0 0 .98-.977v-6.419a2.576 2.576 0 0 0-1.6-2.384v-7.849a.988.988 0 0 0-.53-.871l-14.58-7.4a.968.968 0 0 0-.88 0l-14.57 7.4a.972.972 0 0 0 0 1.742l5.86 2.978v2.266a3.32 3.32 0 0 0 .51 6.6 8.424 8.424 0 0 0 2.49 4.42v2.921l-12.58 2.988a4.965 4.965 0 0 0-3.83 4.855v12.749a.971.971 0 0 0 .97.977h42.72a.971.971 0 0 0 .97-.977v-3.076a.975.975 0 1 0-1.95 0v2.1h-5.54v-14.067a4.29 4.29 0 0 0-.26-1.483l3.46.82a3.024 3.024 0 0 1 2.34 2.955v2.591a.979.979 0 0 0 .98.976zm-7.18-21.234a.625.625 0 0 1 1.25 0v5.443h-1.25v-5.443zm-29.02 15.375v14.063h-5.54v-11.776a3.025 3.025 0 0 1 2.34-2.955l3.46-.824a4.32 4.32 0 0 0-.26 1.489zm24.61-16.214a1.368 1.368 0 0 1-1.18 1.352v-2.7a1.369 1.369 0 0 1 1.18 1.345zm-18.36 1.352a1.365 1.365 0 0 1 0-2.7v2.7zm.08-10.6a.967.967 0 0 0-.41.792v.722l-3.26-1.658 12.41-6.306 12.42 6.306-3.27 1.658v-.722a.988.988 0 0 0-.42-.807l-.32-.214a14.965 14.965 0 0 0-17.15.224zm1.54 1.3a13.025 13.025 0 0 1 14.4.006v3.816a8.529 8.529 0 0 0-1.99-.234 8.474 8.474 0 0 1-10.4 0 8.606 8.606 0 0 0-2.01.239v-3.827zm.33 9.519v-3.759a6.531 6.531 0 0 1 6.2 1.605.986.986 0 0 0 1.36 0 6.52 6.52 0 0 1 5.72-1.712v3.866a6.511 6.511 0 0 1-6.5 6.5h-.28a6.511 6.511 0 0 1-6.5-6.502zm10.68 10.345h-8.13a1 1 0 0 0 .13-.484v-2.321a8.4 8.4 0 0 0 3.82.916h.28a8.419 8.419 0 0 0 3.77-.889v2.289a.9.9 0 0 0 .13.487zm8.85 18.36h-21.87v-4.525a.98.98 0 0 0-1.96 0v4.525h-1.95v-14.065a2.345 2.345 0 0 1 2.34-2.344h21.1a2.345 2.345 0 0 1 2.34 2.344v14.063zm9.16-6.672a1.01 1.01 0 0 0-.69-.287.974.974 0 0 0-.69.287.966.966 0 0 0 0 1.38.974.974 0 0 0 .69.287 1.01 1.01 0 0 0 .69-.287.99.99 0 0 0 0-1.382z" transform="translate(-1228.66 -509)"/></svg><svg width="44" height="50" viewBox="0 0 44 50" id="price-factor-2" x="845" y="569" xmlns="http://www.w3.org/2000/svg"><defs><style>.arcls-1{fill:#d04545;fill-rule:evenodd}</style></defs><path id="ar_2" data-name="2" class="arcls-1" d="M1380.71 527.942l-7.06-7.019a1.022 1.022 0 0 0-.71-.292h-7.67v-3.617a.981.981 0 0 0-.29-.7l-7.06-7.019a1.007 1.007 0 0 0-.71-.291H1338a1 1 0 0 0-1 1v36.376a1 1 0 0 0 1 1h14.73V558a.993.993 0 0 0 1 1H1380a1 1 0 0 0 1-1v-29.354a1.022 1.022 0 0 0-.29-.704zm-6.77-3.91l1.82 1.809 1.82 1.809h-3.64v-3.618zm-15.73-11.632l1.82 1.81 1.82 1.808h-3.64V512.4zm-15.61 8.231a1 1 0 1 0 0 1.992h10.13v2.98h-10.13a1 1 0 1 0 0 1.992h10.13v2.989h-10.13a1 1 0 1 0 0 1.992h10.13v2.989h-10.13a1 1 0 1 0 0 1.992h10.13v7.819H1339v-34.384h17.21v6.022a1 1 0 0 0 1 1h6.06v2.62h-20.67zm36.4 36.377h-24.27v-34.385h17.2v6.023a1 1 0 0 0 1.01 1h6.06v27.366zm-20.68-22.762h12.57a1 1 0 1 0 0-1.992h-12.57a1 1 0 1 0 0 1.992zm17.08 2.989h-17.08a1 1 0 1 0 0 1.992h17.08a1 1 0 1 0 0-1.992zm0 4.981h-17.08a1 1 0 1 0 0 1.992h17.08a1 1 0 1 0 0-1.992zm0 4.981h-17.08a1 1 0 1 0 0 1.992h17.08a1 1 0 1 0 0-1.989zm-1.67-12.951h1.67a1 1 0 1 0 0-1.992h-1.67a1 1 0 1 0 0 1.992z" transform="translate(-1337 -509)"/></svg><svg width="45" height="50" viewBox="0 0 45 50" id="price-factor-3" x="889" y="619" xmlns="http://www.w3.org/2000/svg"><defs><style>.ascls-1{fill:#d04545;fill-rule:evenodd}</style></defs><path id="as_3" data-name="3" class="ascls-1" d="M1467.5 553.14a.977.977 0 1 0 .98.977.98.98 0 0 0-.98-.977zm19.57-40.234h-1.96v-.977a2.935 2.935 0 0 0-5.87 0v.977h-3.91v-.977a2.935 2.935 0 0 0-5.87 0v.977h-3.92v-.977a2.935 2.935 0 0 0-5.87 0v.977h-3.91v-.977a2.935 2.935 0 0 0-5.87 0v.977h-1.96a2.937 2.937 0 0 0-2.93 2.93v38.281a4.89 4.89 0 0 0 4.89 4.883h35.22a4.89 4.89 0 0 0 4.89-4.883v-38.281a2.937 2.937 0 0 0-2.93-2.93zm-5.87-.977a.975.975 0 1 1 1.95 0v.977h-1.95v-.977zm-9.79 0a.98.98 0 0 1 1.96 0v.977h-1.96v-.977zm-9.78 0a.98.98 0 0 1 1.96 0v.977h-1.96v-.977zm-9.78 0a.975.975 0 1 1 1.95 0v.977h-1.95v-.977zm36.19 38.282a2.93 2.93 0 0 1-2.93 2.929h-13.7a.977.977 0 1 0 0 1.953h13.7a4.836 4.836 0 0 0 2.93-.979 2.931 2.931 0 0 1-2.93 2.93h-35.22a2.931 2.931 0 0 1-2.93-2.93 4.836 4.836 0 0 0 2.93.979h13.7a.977.977 0 1 0 0-1.953h-13.7a2.93 2.93 0 0 1-2.93-2.929v-25.586h41.08v25.586zm0-27.539h-41.08v-6.836a.978.978 0 0 1 .97-.977h1.96v.977a2.939 2.939 0 0 0 2.94 2.929.977.977 0 0 0 0-1.953.979.979 0 0 1-.98-.976v-.977h7.82v.977a2.939 2.939 0 0 0 2.94 2.929.977.977 0 1 0 0-1.953.979.979 0 0 1-.98-.976v-.977h7.83v.977a2.93 2.93 0 0 0 2.93 2.929.977.977 0 1 0 0-1.953.979.979 0 0 1-.98-.976v-.977h7.83v.977a2.936 2.936 0 0 0 2.93 2.929.977.977 0 1 0 0-1.953.971.971 0 0 1-.97-.976v-.977h5.87a.978.978 0 0 1 .97.977v6.836zm-30.32 6.445h-5.87a.979.979 0 0 0-.98.976v5.86a.98.98 0 0 0 .98.977h5.87a.98.98 0 0 0 .98-.977v-5.86a.979.979 0 0 0-.98-.976zm-.98 5.859h-3.91v-3.906h3.91v3.906zm13.69-5.859h-5.86a.972.972 0 0 0-.98.976v5.86a.973.973 0 0 0 .98.977h5.86a.98.98 0 0 0 .98-.977v-5.86a.979.979 0 0 0-.98-.976zm-.97 5.859h-3.92v-3.906h3.92v3.906zm13.69-5.859h-5.87a.979.979 0 0 0-.98.976v5.86a.98.98 0 0 0 .98.977h5.87a.98.98 0 0 0 .98-.977v-5.86a.979.979 0 0 0-.98-.976zm-.98 5.859h-3.91v-3.906h3.91v3.906zm-24.45 5.86h-5.87a.979.979 0 0 0-.98.976v5.859a.979.979 0 0 0 .98.977h5.87a.979.979 0 0 0 .98-.977v-5.859a.979.979 0 0 0-.98-.976zm-.98 5.859h-3.91v-3.906h3.91v3.911zm13.69-5.859h-5.86a.972.972 0 0 0-.98.976v5.859a.973.973 0 0 0 .98.977h5.86a.979.979 0 0 0 .98-.977v-5.859a.979.979 0 0 0-.98-.976zm-.97 5.859h-3.92v-3.906h3.92v3.911zm13.69-5.859h-5.87a.979.979 0 0 0-.98.976v5.859a.979.979 0 0 0 .98.977h5.87a.979.979 0 0 0 .98-.977v-5.859a.979.979 0 0 0-.98-.976zm-.98 5.859h-3.91v-3.906h3.91v3.911z" transform="translate(-1445 -509)"/></svg><svg width="870" height="549" viewBox="0 0 870 549" id="promo__bg--blue" x="934" y="669" xmlns="http://www.w3.org/2000/svg"><defs><style>.atcls-1{fill:#32424b;fill-rule:evenodd}</style></defs><path id="atbg_1" class="atcls-1" d="M1921 82l-531.67 531.3a57.036 57.036 0 0 1-80.66 0L1066.7 371.329a57.021 57.021 0 0 1 0-80.658L1276 81z" transform="translate(-1050 -81)"/></svg><svg width="871" height="549" viewBox="0 0 871 549" id="promo__bg--grey" x="1804" y="1218" xmlns="http://www.w3.org/2000/svg"><defs><path id="aua" d="M1921 82l-531.67 531.3a57.03 57.03 0 0 1-80.66 0L1066.7 371.33a57.03 57.03 0 0 1 0-80.66L1276 81z"/></defs><use fill="#32424b" xlink:href="#aua" transform="translate(-1050 -81)"/></svg><svg width="56" height="50" viewBox="0 0 56 50" id="quote" x="2675" y="1767" xmlns="http://www.w3.org/2000/svg"><defs><style>.avcls-1{fill:#f0f0f0;fill-rule:evenodd}</style></defs><path id="avquote" class="avcls-1" d="M895.128 2338h-17.46a2.887 2.887 0 0 0-2.871 2.9v17.67a2.887 2.887 0 0 0 2.871 2.9h8.357q-.163 6.945-3.182 11.11a17.417 17.417 0 0 1-7.2 5.45 2.913 2.913 0 0 0-1.425 3.9l2.068 4.41a2.858 2.858 0 0 0 3.739 1.42 31.984 31.984 0 0 0 9.632-6.32 24.56 24.56 0 0 0 6.564-10.57c1.183-3.93 1.775-9.28 1.775-16.08v-13.89a2.888 2.888 0 0 0-2.868-2.9zm-47.038 49.75a32.528 32.528 0 0 0 9.586-6.31 24.433 24.433 0 0 0 6.6-10.53q1.775-5.85 1.774-16.12v-13.89a2.887 2.887 0 0 0-2.871-2.9h-17.46a2.888 2.888 0 0 0-2.872 2.9v17.67a2.888 2.888 0 0 0 2.872 2.9h8.357q-.165 6.945-3.182 11.11a17.414 17.414 0 0 1-7.2 5.45 2.913 2.913 0 0 0-1.424 3.9l2.062 4.4a2.862 2.862 0 0 0 3.758 1.42z" transform="translate(-842 -2338)"/></svg><svg width="50" height="50.001" viewBox="0 0 50 50.001" id="red-head" x="2731" y="1817" xmlns="http://www.w3.org/2000/svg"><defs><style>.awa{fill:#cd3838}</style></defs><path class="awa" d="M1.222 31.161a5.9 5.9 0 0 0 .861.5c.358.184.958.492 1 .708a1.454 1.454 0 0 1-.1.844c-.124.267-.253.5-.365.693-.3.539-.812 1.442-.046 2.072.179.167.488.407.77.625a2.108 2.108 0 0 0-.269 1.2 1.2 1.2 0 0 0 .492.819c.184.131.38.244.574.355.49.281.681.412.746.672a2.307 2.307 0 0 1-.083 1c-.049.222-.1.446-.124.667a4.983 4.983 0 0 0 .273 2.245 3.108 3.108 0 0 0 2.932 2.271 3.316 3.316 0 0 0 .68-.072 62.651 62.651 0 0 0 6.989-2.1c1.868 1.1 3.047 4.452 3.355 5.709a.83.83 0 0 0 .8.632l20.806-.058a.828.828 0 0 0 .667-.341.837.837 0 0 0 .122-.742 6.444 6.444 0 0 0-.84-1.583 7.79 7.79 0 0 1-.536-.9 15.792 15.792 0 0 1-.924-2.374 28.247 28.247 0 0 1-.973-4.875.829.829 0 1 0-1.645.2 29.857 29.857 0 0 0 1.03 5.175 17.518 17.518 0 0 0 1.028 2.6 9.255 9.255 0 0 0 .642 1.089l.056.083-18.8.054a13.3 13.3 0 0 0-2.918-5.322l.746-.262c.555-.195.974-.342 1.189-.411 3.551-1.129 5.327-2.755 5.279-4.833a.814.814 0 0 0-.249-.588.8.8 0 0 0-.6-.225.831.831 0 0 0-.809.852c.02.857-.679 2.108-4.125 3.2-.225.073-.657.224-1.232.426-.616.217-1.4.492-2.263.787h-.006a64.254 64.254 0 0 1-7.129 2.167 1.467 1.467 0 0 1-1.706-1.111 3.329 3.329 0 0 1-.195-1.487c.022-.175.061-.348.1-.522a3.669 3.669 0 0 0 .08-1.765 2.764 2.764 0 0 0-1.534-1.7l-.172-.1a3.127 3.127 0 0 1 .319-.515.836.836 0 0 0-.158-1.187c-.2-.147-.668-.5-1.011-.778l.124-.225c.13-.229.279-.5.424-.8a3.139 3.139 0 0 0 .221-1.865c-.2-1.017-1.167-1.515-1.874-1.878a4.7 4.7 0 0 1-.681-.4 3.523 3.523 0 0 1-.5-.407c0-.126.134-.431.766-1.2a33.551 33.551 0 0 0 3.794-6.195 2.471 2.471 0 0 0 .321-1.127 2.92 2.92 0 0 0-1.211-2.083c-.336-.309-.652-.6-.688-.87a1.521 1.521 0 0 1 .129-.572c.135-.357.291-.707.448-1.058a12.214 12.214 0 0 0 .811-2.2l.083-.355a20.919 20.919 0 0 1 .678-2.46 14.3 14.3 0 0 1 2.974-4.884c1.586-1.687 4.082-2.88 7.431-3.549A53.617 53.617 0 0 1 24.973 1.7a17.589 17.589 0 0 1 3.9.222.833.833 0 0 0 .284-1.642 19.153 19.153 0 0 0-4.272-.245 55.055 55.055 0 0 0-8.018 1.157c-3.738.75-6.454 2.067-8.308 4.037a15.981 15.981 0 0 0-3.325 5.452 22.7 22.7 0 0 0-.732 2.654l-.083.352a10.91 10.91 0 0 1-.709 1.9c-.166.38-.338.76-.487 1.153a2.8 2.8 0 0 0-.221 1.393 3.183 3.183 0 0 0 1.207 1.86c.405.374.671.637.675.867a1.388 1.388 0 0 1-.142.362 32.179 32.179 0 0 1-3.63 5.931 3.455 3.455 0 0 0-1.094 2.45 2.542 2.542 0 0 0 1.204 1.558z"/><path class="awa" d="M9.306 15.213l.085-.38a19.041 19.041 0 0 1 .57-2.1 11.263 11.263 0 0 1 2.346-3.847 8.95 8.95 0 0 1 3.94-2.164.855.855 0 1 0-.5-1.635 10.586 10.586 0 0 0-4.685 2.625 12.977 12.977 0 0 0-2.7 4.431 20.374 20.374 0 0 0-.637 2.314l-.085.37a.855.855 0 0 0 .639 1.026.84.84 0 0 0 .194.022.855.855 0 0 0 .833-.662z"/><circle class="awa" cx=".855" cy=".855" r=".855" transform="translate(6.84 16.654)"/><path class="awa" d="M21.791 17.279a11.716 11.716 0 0 0 2.888 7.941 14.692 14.692 0 0 0 1.966 1.71c1.251.967 2.435 1.891 2.75 3.177a2.564 2.564 0 0 0-1.621 2.38v1.71a2.564 2.564 0 0 0 1.71 2.407v.157a3.42 3.42 0 1 0 6.839 0v-.157a2.564 2.564 0 0 0 1.71-2.407v-1.71a2.564 2.564 0 0 0-1.624-2.38c.314-1.282 1.5-2.21 2.75-3.177a14.745 14.745 0 0 0 1.966-1.71 11.722 11.722 0 0 0 2.892-7.941A11.338 11.338 0 0 0 32.903 5.987a11.338 11.338 0 0 0-11.112 11.292zm8.548 1.53h-.855a.855.855 0 1 1 .855-.855zm3.419 11.113h-1.71v-9.4h1.71zm-.855 8.548a1.71 1.71 0 0 1-1.71-1.71h3.419a1.71 1.71 0 0 1-1.709 1.71zm3.419-4.274a.855.855 0 0 1-.855.855h-5.128a.855.855 0 0 1-.855-.855v-1.709a.855.855 0 0 1 .855-.855h5.129a.855.855 0 0 1 .855.855zm5.984-16.89a10 10 0 0 1-2.447 6.769 13.359 13.359 0 0 1-1.741 1.5 11.968 11.968 0 0 0-2.65 2.529v-7.585h.855a2.564 2.564 0 1 0-2.564-2.564v.855h-1.71v-.855a2.564 2.564 0 1 0-2.564 2.564h.855v7.587a11.952 11.952 0 0 0-2.649-2.528 13.383 13.383 0 0 1-1.742-1.5 9.99 9.99 0 0 1-2.451-6.769 9.749 9.749 0 0 1 9.4-9.609 9.746 9.746 0 0 1 9.408 9.606zm-6.839 1.5v-.855a.855.855 0 1 1 .855.855zm11.114-1.275h2.564a.855.855 0 0 0 0-1.71h-2.564a.855.855 0 1 0 0 1.71zm-4.006-9.247a.855.855 0 0 0 .605-.25l1.813-1.814a.855.855 0 1 0-1.209-1.209L41.97 6.824a.855.855 0 0 0 .6 1.46zm-9.248-4.007a.855.855 0 0 0 .855-.855V.858a.855.855 0 1 0-1.71 0v2.564a.855.855 0 0 0 .855.855zm-8.79 3.756a.855.855 0 0 0 0-1.21l-1.814-1.812a.855.855 0 1 0-1.209 1.209l1.813 1.814a.855.855 0 0 0 1.21 0zm-7.053 7.788a.855.855 0 1 0 0 1.71h2.564a.855.855 0 1 0 0-1.71z"/></svg><svg width="50" height="50" viewBox="0 0 50 50" id="red-icon-1" x="2781" y="1868" xmlns="http://www.w3.org/2000/svg"><defs><style>.axa{fill:#cd3838}</style></defs><path class="axa" d="M5.035 9.23h5.035a.839.839 0 0 0 0-1.678H5.035a.839.839 0 0 0 0 1.678zm9.116 0h7.552a.839.839 0 0 0 0-1.678h-7.552a.839.839 0 1 0 0 1.678zm-9.116 9.111h26.853a.839.839 0 0 0 0-1.678H5.035a.839.839 0 1 0 0 1.678zm0 3.332h11.748a.839.839 0 1 0 0-1.678H5.035a.839.839 0 1 0 0 1.678zm0 6.665h11.748a.839.839 0 1 0 0-1.678H5.035a.839.839 0 0 0 0 1.678zm0 6.665h11.748a.839.839 0 1 0 0-1.678H5.035a.839.839 0 0 0 0 1.678zm0 6.665h11.748a.839.839 0 0 0 0-1.678H5.035a.839.839 0 0 0 0 1.678z"/><path class="axa" d="M49.5 24.275l-9.5-4.1V2.5A2.5 2.5 0 0 0 37.5 0H5.833a2.5 2.5 0 0 0-2.5 2.5v.833H2.5a2.5 2.5 0 0 0-2.5 2.5V47.5A2.5 2.5 0 0 0 2.5 50h31.667a2.493 2.493 0 0 0 1.788-.761l.683.486a1.49 1.49 0 0 0 1.725 0l8.063-5.739A8.488 8.488 0 0 0 50 37.091V25.04a.833.833 0 0 0-.5-.765zM5 2.5a.833.833 0 0 1 .833-.833H37.5a.833.833 0 0 1 .833.833v16.952l-.5-.217a.833.833 0 0 0-.66 0l-.5.217v-5.285c0-.018-.009-.036-.011-.054a.784.784 0 0 0-.04-.205c-.006-.019 0-.039-.013-.057s-.013-.018-.017-.028a.833.833 0 0 0-.167-.244l-10-10a.833.833 0 0 0-.244-.167c-.011 0-.018-.013-.028-.017s-.038-.007-.057-.012a.833.833 0 0 0-.207-.041.379.379 0 0 1-.056-.007H5zm21.667 3.678l7.155 7.155H27.5a.833.833 0 0 1-.833-.833zm7.5 42.155H2.5a.833.833 0 0 1-.833-.833V5.833A.833.833 0 0 1 2.5 5H25v7.5a2.5 2.5 0 0 0 2.5 2.5H35v5.172l-2.683 1.161a.814.814 0 0 0 .183-.5.833.833 0 0 0-.833-.833H20a.833.833 0 1 0 0 1.667h11.541l-3.858 1.667H5A.833.833 0 1 0 5 25h20.006c0 .013-.006.026-.006.04v1.627h-5a.833.833 0 1 0 0 1.667h5V30H5a.833.833 0 1 0 0 1.667h20v1.667h-5A.833.833 0 1 0 20 35h5v1.667H5a.833.833 0 1 0 0 1.667h20.1A8.353 8.353 0 0 0 25.526 40H20a.833.833 0 1 0 0 1.667h6.368a8.528 8.528 0 0 0 1.4 1.667H5A.833.833 0 1 0 5 45h25l4.54 3.232a.813.813 0 0 1-.373.101zm14.166-11.242a6.818 6.818 0 0 1-2.874 5.537L37.5 48.293l-7.959-5.667a6.818 6.818 0 0 1-2.874-5.536v-11.5l1.508-.652.016-.007 9.309-4.024 10.833 4.68z"/><path class="axa" d="M37.082 22.677l-8.4 3.625a.839.839 0 0 0-.5.77v9.929a5.184 5.184 0 0 0 2.189 4.208l6.556 4.667a.839.839 0 0 0 .973 0l6.556-4.667a5.186 5.186 0 0 0 2.189-4.208v-9.929a.839.839 0 0 0-.5-.77l-8.392-3.625a.839.839 0 0 0-.671 0zm7.888 4.951v9.373a3.506 3.506 0 0 1-1.488 2.85l-6.068 4.315-6.068-4.32a3.5 3.5 0 0 1-1.484-2.841v-9.382l7.552-3.262z"/><path class="axa" d="M32.881 35.158a.84.84 0 0 0-1.007 1.343l3.356 2.515a.839.839 0 0 0 1.159-.147l6.713-8.392a.84.84 0 1 0-1.311-1.049l-6.2 7.757z"/></svg><svg width="44.986" height="50" viewBox="0 0 44.986 50" id="red-icon-2" x="2831" y="1918" xmlns="http://www.w3.org/2000/svg"><defs><style>.aya{fill:#cd3838}</style></defs><path class="aya" d="M29.991 5.847h-5.982a2.5 2.5 0 0 0-2.349-1.665V2.514a2.5 2.5 0 0 0-2.5-2.5h-5a2.5 2.5 0 0 0-2.5 2.5v1.668a2.5 2.5 0 0 0-2.346 1.665H3.332A3.332 3.332 0 0 0 0 9.182v37.486A3.332 3.332 0 0 0 3.332 50h26.659a3.332 3.332 0 0 0 3.332-3.332V9.182a3.332 3.332 0 0 0-3.332-3.335zm-20.685 5a2.5 2.5 0 0 0 2.358 1.666h10a2.5 2.5 0 0 0 2.358-1.666h4.307v34.154H5V10.845zm4.024-8.331a.833.833 0 0 1 .833-.833h5a.833.833 0 0 1 .833.833v1.666h-6.667zm-1.667 3.331h10a.833.833 0 0 1 .833.833v3.332a.833.833 0 0 1-.833.833h-10a.833.833 0 0 1-.833-.833v-3.33a.833.833 0 0 1 .833-.835zm19.994 40.821a1.666 1.666 0 0 1-1.666 1.666H3.332a1.666 1.666 0 0 1-1.666-1.666V9.182a1.666 1.666 0 0 1 1.666-1.669h5.832v1.669h-5a.833.833 0 0 0-.833.833v35.82a.833.833 0 0 0 .833.833h24.994a.833.833 0 0 0 .833-.833V10.012a.833.833 0 0 0-.833-.83h-5V7.513h5.832a1.666 1.666 0 0 1 1.667 1.669z"/><circle class="aya" cx=".833" cy=".833" r=".833" transform="translate(12.496 7.513)"/><circle class="aya" cx=".833" cy=".833" r=".833" transform="translate(19.161 7.513)"/><path class="aya" d="M7.5 16.677h10.83a.833.833 0 0 0 0-1.666H7.5a.833.833 0 0 0 0 1.666zm0 3.332h6.665a.833.833 0 1 0 0-1.666H7.5a.833.833 0 0 0 0 1.666zm0 4.165h10.83a.833.833 0 0 0 0-1.666H7.5a.833.833 0 0 0 0 1.666zm0 3.333h6.665a.833.833 0 1 0 0-1.666H7.5a.833.833 0 0 0 0 1.666zm0 4.165h10.83a.833.833 0 0 0 0-1.666H7.5a.833.833 0 0 0 0 1.666zm0 3.332h6.665a.833.833 0 0 0 0-1.666H7.5a.833.833 0 0 0 0 1.666zm0 4.166h10.83a.833.833 0 0 0 0-1.666H7.5a.833.833 0 1 0 0 1.666zm0 3.332h6.665a.833.833 0 1 0 0-1.666H7.5a.833.833 0 0 0 0 1.666zm14.16-21.66h3.332a1.666 1.666 0 0 0 1.666-1.666v-.833a.833.833 0 0 0-1.666 0v.833H21.66a.833.833 0 1 0 0 1.666zm.833 7.498h2.5a1.666 1.666 0 0 0 1.666-1.666v-2.5a1.666 1.666 0 0 0-1.666-1.666h-2.5a1.666 1.666 0 0 0-1.666 1.666v2.5a1.666 1.666 0 0 0 1.666 1.666zm2.5-4.165v2.5h-2.5v-2.5zm-2.5 11.663h2.5a1.666 1.666 0 0 0 1.666-1.666v-2.5a1.666 1.666 0 0 0-1.666-1.666h-2.5a1.666 1.666 0 0 0-1.666 1.666v2.5a1.666 1.666 0 0 0 1.666 1.666zm2.5-4.165v2.5h-2.5v-2.5zm-2.5 11.662h2.5a1.666 1.666 0 0 0 1.666-1.666v-2.5a1.666 1.666 0 0 0-1.666-1.666h-2.5a1.666 1.666 0 0 0-1.666 1.666v2.5a1.666 1.666 0 0 0 1.666 1.666zm2.5-4.165v2.5h-2.5v-2.5z"/><path class="aya" d="M22.735 18.101a.833.833 0 0 0 1.241-.067l3.332-4.165a.833.833 0 1 0-1.3-1.041L23.26 16.26l-.175-.175a.837.837 0 0 0-1.185 1.183zm22.251-9.08c-.05-.25.333.666-3.474-8.081a1.666 1.666 0 0 0-3 0c-4.074 8.714-3.441 7.831-3.524 8.081s0-2.882 0 37.647A3.332 3.332 0 0 0 38.32 50h3.332a3.332 3.332 0 0 0 3.332-3.332V9.021zm-7.181-2.339h4.357l.725 1.666h-5.832zm2.183 13.329a.833.833 0 0 0-.833.833v16.66h-2.5V10.012h2.5v7.5a.833.833 0 0 0 1.666 0v-7.5h2.5v27.492h-2.5V20.842a.833.833 0 0 0-.833-.833zM36.656 39.17h6.664v2.5h-6.664zm3.332-37.488l1.45 3.332h-2.916zm3.332 44.986a1.666 1.666 0 0 1-1.666 1.666h-3.332a1.666 1.666 0 0 1-1.666-1.666v-3.333h6.664z"/></svg><svg width="50" height="50.011" viewBox="0 0 50 50.011" id="red-icon-3" x="2876" y="1968" xmlns="http://www.w3.org/2000/svg"><defs><style>.aza{fill:#cd3838}</style></defs><path class="aza" d="M37.767 5.572L25.323.069a.822.822 0 0 0-.664 0L12.218 5.572a.838.838 0 0 0-.5.768v13.159a9.26 9.26 0 0 0 3.783 7.465l8.6 6.266a1.506 1.506 0 0 0 1.78 0l8.6-6.265a9.26 9.26 0 0 0 3.784-7.466V6.339a.838.838 0 0 0-.498-.767zm-1.161 13.927a7.574 7.574 0 0 1-3.094 6.1l-8.52 6.207-8.52-6.207a7.574 7.574 0 0 1-3.095-6.1V6.888l11.615-5.136 11.614 5.136z"/><path class="aza" d="M24.656 3.728l-9.221 4.036a.838.838 0 0 0-.5.768v10.965a5.866 5.866 0 0 0 2.43 4.746l7.136 5.149a.838.838 0 0 0 .98 0l7.136-5.147a5.866 5.866 0 0 0 2.43-4.746V8.532a.838.838 0 0 0-.5-.768l-9.221-4.036a.838.838 0 0 0-.67 0zm8.715 5.351v10.418a4.19 4.19 0 0 1-1.736 3.388l-6.645 4.793-6.645-4.793a4.19 4.19 0 0 1-1.735-3.387V9.079l8.38-3.668zM6.929 27.552l-1.813-4.235a2.672 2.672 0 0 0-4.888 2.162l3.284 7.224a8.9 8.9 0 0 0 1.819 2.626l5.165 5.166a1.666 1.666 0 0 0-.454 1.14v6.7a1.676 1.676 0 0 0 1.676 1.676h9.218a1.676 1.676 0 0 0 1.676-1.676v-6.7a1.676 1.676 0 0 0-1.676-1.676v-1.56a8.781 8.781 0 0 0-1.837-5.489 6.034 6.034 0 0 0-2.793-2.037 16.578 16.578 0 0 1-4.8-3.079 3.855 3.855 0 0 0-4.577-.242zm14.007 20.783h-9.218v-6.7h9.218zm-3.145-14.382a7.111 7.111 0 0 1 1.469 4.442v1.56h-6.93l-5.814-5.814a7.248 7.248 0 0 1-1.479-2.134l-3.284-7.228a1 1 0 1 1 1.822-.8l1.875 4.37a9.889 9.889 0 0 0 2.113 3.122l3.828 3.829a.838.838 0 1 0 1.185-1.185l-3.828-3.829a8.265 8.265 0 0 1-1.033-1.257 2.179 2.179 0 0 1 2.714.045 17.867 17.867 0 0 0 5.347 3.386 4.4 4.4 0 0 1 2.015 1.493z"/><path class="aza" d="M18.327 44.145h-.838a.838.838 0 1 0 0 1.676h.838a.838.838 0 1 0 0-1.676zm28.144-11.446l3.284-7.224a2.672 2.672 0 1 0-4.884-2.158l-1.812 4.219a3.865 3.865 0 0 0-4.588.25 16.578 16.578 0 0 1-4.8 3.079 6.034 6.034 0 0 0-2.793 2.037 8.781 8.781 0 0 0-1.837 5.491v1.56a1.676 1.676 0 0 0-1.67 1.677v6.7a1.676 1.676 0 0 0 1.676 1.676h9.218a1.676 1.676 0 0 0 1.676-1.676v-6.7a1.666 1.666 0 0 0-.454-1.144l5.165-5.166a8.9 8.9 0 0 0 1.819-2.621zm-8.206 15.636h-9.218v-6.7h9.218zm-.613-8.38h-6.93v-1.56a7.111 7.111 0 0 1 1.469-4.441 4.4 4.4 0 0 1 2.011-1.494 17.86 17.86 0 0 0 5.347-3.386 2.179 2.179 0 0 1 2.719-.053 8.218 8.218 0 0 1-1.036 1.265l-3.828 3.829a.838.838 0 0 0 1.185 1.185l3.828-3.829a9.888 9.888 0 0 0 2.113-3.122l1.875-4.373a1 1 0 1 1 1.822.805l-3.284 7.224a7.248 7.248 0 0 1-1.479 2.134z"/><path class="aza" d="M32.493 44.145h-.838a.838.838 0 1 0 0 1.676h.838a.838.838 0 1 0 0-1.676zm-12.027-26.45a.838.838 0 0 0-1.006 1.341l3.352 2.514a.838.838 0 0 0 .5.168.9.9 0 0 0 .142-.012.838.838 0 0 0 .556-.361l6.7-10.056a.838.838 0 0 0-1.394-.93l-6.213 9.32z"/></svg><svg width="49.979" height="50" viewBox="0 0 49.979 50" id="red-icon-4" x="2926" y="2019" xmlns="http://www.w3.org/2000/svg"><defs><style>.baa{fill:#cd3838}</style></defs><path class="baa" d="M2.655 21.847a2.657 2.657 0 0 0-2.417 3.756l3.266 7.184a8.87 8.87 0 0 0 1.809 2.611l5.137 5.136a1.657 1.657 0 0 0-.454 1.134v6.666a1.667 1.667 0 0 0 1.667 1.667h9.166a1.667 1.667 0 0 0 1.667-1.667v-6.666a1.667 1.667 0 0 0-1.667-1.667v-1.55a8.735 8.735 0 0 0-1.826-5.458 6 6 0 0 0-2.778-2.026 16.482 16.482 0 0 1-4.77-3.061 3.845 3.845 0 0 0-4.56-.25l-1.8-4.2a2.654 2.654 0 0 0-2.44-1.609zm18.173 26.487h-9.166v-6.666h9.166zM5.43 28.461a9.854 9.854 0 0 0 2.1 3.1l3.807 3.807a.833.833 0 1 0 1.179-1.174l-3.807-3.807a8.214 8.214 0 0 1-1.027-1.253 2.166 2.166 0 0 1 2.7.045 17.754 17.754 0 0 0 5.314 3.37 4.362 4.362 0 0 1 2 1.486 7.066 7.066 0 0 1 1.465 4.416v1.551h-6.89L6.49 34.22a7.217 7.217 0 0 1-1.471-2.122l-3.266-7.184a.991.991 0 1 1 1.812-.8z"/><path class="baa" d="M18.329 44.167h-.833a.833.833 0 1 0 0 1.667h.833a.833.833 0 1 0 0-1.667zm28.157-11.38l3.266-7.184a2.656 2.656 0 0 0-4.86-2.146l-1.8 4.2a3.841 3.841 0 0 0-4.559.25 16.5 16.5 0 0 1-4.77 3.061 6 6 0 0 0-2.778 2.026 8.735 8.735 0 0 0-1.826 5.46v1.551a1.667 1.667 0 0 0-1.665 1.662v6.666A1.667 1.667 0 0 0 29.161 50h9.166a1.667 1.667 0 0 0 1.667-1.667v-6.666a1.657 1.657 0 0 0-.452-1.134l5.136-5.135a8.878 8.878 0 0 0 1.808-2.611zm-8.16 15.546h-9.165v-6.666h9.166zM37.717 40h-6.89v-1.55a7.066 7.066 0 0 1 1.462-4.416 4.362 4.362 0 0 1 2-1.486 17.766 17.766 0 0 0 5.316-3.366 2.166 2.166 0 0 1 2.7-.044 8.193 8.193 0 0 1-1.026 1.25l-3.807 3.807a.833.833 0 0 0 1.178 1.178l3.807-3.807a9.854 9.854 0 0 0 2.1-3.1l1.864-4.348a.991.991 0 1 1 1.812.8l-3.267 7.18a7.217 7.217 0 0 1-1.472 2.122z"/><path class="baa" d="M32.494 44.167h-.833a.833.833 0 1 0 0 1.667h.833a.833.833 0 1 0 0-1.667zm.416-14.619a1.009 1.009 0 0 0 .077-.068 15.935 15.935 0 0 0 5.617-5.6.82.82 0 0 0 .1-.13.681.681 0 0 0 .027-.079 15.712 15.712 0 0 0 0-15.674.68.68 0 0 0-.027-.083.774.774 0 0 0-.069-.078 15.938 15.938 0 0 0-5.649-5.649 1.009 1.009 0 0 0-.077-.068c-.024-.014-.047-.014-.077-.024a15.71 15.71 0 0 0-15.675 0 .667.667 0 0 0-.078.026 1.009 1.009 0 0 0-.077.068 15.93 15.93 0 0 0-5.65 5.649.774.774 0 0 0-.069.078.68.68 0 0 0-.027.083 15.712 15.712 0 0 0 0 15.674.68.68 0 0 0 .027.079.82.82 0 0 0 .1.13 15.935 15.935 0 0 0 5.617 5.6 1.009 1.009 0 0 0 .077.068.758.758 0 0 0 .108.044 15.717 15.717 0 0 0 15.615 0 .757.757 0 0 0 .11-.046zm-.129-1.891l-.833-1.442a12.59 12.59 0 0 0 3.425-3.425l1.442.833a14.274 14.274 0 0 1-4.034 4.034zm-21.91-10.988h1.667a12.391 12.391 0 0 0 1.25 4.673l-1.445.833a14.033 14.033 0 0 1-1.472-5.506zm1.474-7.174l1.445.833a12.392 12.392 0 0 0-1.252 4.677h-1.667a14.033 14.033 0 0 1 1.474-5.509zm1.817 6.341a10.832 10.832 0 1 1 10.832 10.833 10.832 10.832 0 0 1-10.832-10.833zM25.827 3.38V1.713a14.033 14.033 0 0 1 5.507 1.474l-.833 1.445a12.391 12.391 0 0 0-4.674-1.252zm-1.665 0a12.391 12.391 0 0 0-4.673 1.25l-.834-1.445a14.033 14.033 0 0 1 5.507-1.472zm14.955 11.625h-1.666a12.392 12.392 0 0 0-1.25-4.673l1.445-.833a14.033 14.033 0 0 1 1.471 5.506zm-1.474 7.174l-1.445-.833a12.392 12.392 0 0 0 1.252-4.674h1.667a14.033 14.033 0 0 1-1.474 5.505zm-13.481 6.114v1.667a14.033 14.033 0 0 1-5.507-1.474l.833-1.445a12.391 12.391 0 0 0 4.674 1.252zm1.667 0a12.392 12.392 0 0 0 4.673-1.25l.833 1.445a14.033 14.033 0 0 1-5.506 1.472zM36.815 8.049l-1.442.833a12.59 12.59 0 0 0-3.425-3.425l.833-1.442a14.274 14.274 0 0 1 4.034 4.034zM17.207 4.016l.833 1.442a12.59 12.59 0 0 0-3.425 3.425l-1.442-.833a14.274 14.274 0 0 1 4.034-4.034zm-4.034 19.607l1.442-.833a12.59 12.59 0 0 0 3.425 3.425l-.833 1.442a14.274 14.274 0 0 1-4.034-4.034z"/><path class="baa" d="M20.828 20.836a.833.833 0 0 0 0 1.667h3.333v1.667a.833.833 0 1 0 1.667 0v-1.668h.417a3.75 3.75 0 1 0 0-7.5h-.417v-4.166h3.333a.833.833 0 1 0 0-1.667h-3.333V7.503a.833.833 0 1 0-1.667 0V9.17h-.416a3.75 3.75 0 1 0 0 7.5h.417v4.166zm2.916-5.833a2.083 2.083 0 1 1 0-4.166h.417v4.166zm2.084 1.667h.417a2.083 2.083 0 0 1 0 4.166h-.417z"/></svg><svg width="425" height="189" viewBox="0 0 425 189" id="triangle_white" x="2976" y="2069" xmlns="http://www.w3.org/2000/svg"><defs><style>.bbcls-1{fill:#fff;fill-rule:evenodd}</style></defs><path id="bbbg_2" class="bbcls-1" d="M1201 82l-171.67 171.3a57.035 57.035 0 0 1-80.659 0L776 81z" transform="translate(-776 -81)"/></svg><svg id="trustpilot" viewBox="0 0 27 26" width="27" height="26" x="3401" y="2258" xmlns="http://www.w3.org/2000/svg"><style>.bcst0{fill:#00b67a}.bcst1{fill:#005128}</style><path class="bcst0" d="M27 9.9H16.7L13.5 0l-3.2 9.9H0L8.3 16 5.2 26l8.3-6.1 8.3 6.1-3.2-9.9L27 9.9z"/><path class="bcst1" d="M19.4 18.3l-.7-2.2-5.2 3.8 5.9-1.6z"/></svg><svg width="40" height="40" viewBox="0 0 40 40" id="yellow-check" x="3428" y="2284" xmlns="http://www.w3.org/2000/svg"><defs><style>.bda{fill:#fec137}</style></defs><path class="bda" d="M34.142 5.858A20 20 0 0 0 5.858 34.142 20 20 0 1 0 34.142 5.858zM20 37.656A17.656 17.656 0 1 1 37.656 20 17.676 17.676 0 0 1 20 37.656z"/><path class="bda" d="M30.117 13.204a1.241 1.241 0 0 0-1.755 0L17.404 24.162l-5.768-5.768a1.241 1.241 0 1 0-1.755 1.755l6.646 6.646a1.241 1.241 0 0 0 1.755 0l11.835-11.836a1.241 1.241 0 0 0 0-1.755z"/></svg></svg>