<svg width="149" height="134" fill="none" xmlns="http://www.w3.org/2000/svg"><path fill="#1D9C5B" d="M38 58.913h20v20H38z"/><path fill-rule="evenodd" clip-rule="evenodd" d="M49.644 67.344h5.37l-4.342 3.162-2.645 1.928-.015.004.005.003-.03.022-4.341 3.137 1.656-5.094-4.341-3.162h5.37l1.656-5.094 1.657 5.094Zm-1.627 5.097 4.312 3.134-1.28-3.94-3.022.8-.01.006Z" fill="#fff"/><path fill="#1D9C5B" d="M60.602 58.913h20v20h-20z"/><path fill-rule="evenodd" clip-rule="evenodd" d="M72.244 67.344h5.37l-4.341 3.162-2.645 1.928-.015.004.005.003-.03.022-4.341 3.137 1.656-5.094-4.342-3.162h5.37l1.657-5.094 1.656 5.094Zm-1.626 5.097 4.311 3.134-1.28-3.94-3.021.8-.01.006Z" fill="#fff"/><path fill="#1D9C5B" d="M83.202 58.913h20v20h-20z"/><path fill-rule="evenodd" clip-rule="evenodd" d="M94.846 67.344h5.37l-4.341 3.162-2.646 1.928-.014.004.004.003-.03.022-4.34 3.137 1.655-5.094-4.34-3.162h5.37l1.655-5.094 1.657 5.094Zm-1.627 5.097 4.312 3.134-1.28-3.94-3.022.8-.01.006Z" fill="#fff"/><path fill="#1D9C5B" d="M105.804 58.913h20v20h-20z"/><path fill-rule="evenodd" clip-rule="evenodd" d="M117.447 67.344h5.37l-4.341 3.162-2.645 1.928-.015.004.005.003-.03.022-4.341 3.137 1.656-5.094-4.341-3.162h5.37l1.656-5.094 1.656 5.094Zm-1.626 5.097 4.311 3.134-1.28-3.94-3.021.8-.01.006Z" fill="#fff"/><path fill="#1D9C5B" d="M128.404 58.913h20v20h-20z"/><path fill-rule="evenodd" clip-rule="evenodd" d="M140.048 67.344h5.37l-4.341 3.162-2.646 1.928-.014.004.004.003-.029.022-4.342 3.137 1.657-5.094-4.342-3.162h5.37l1.657-5.094 1.656 5.094Zm-1.627 5.097 4.312 3.134-1.28-3.94-3.022.8-.01.006Z" fill="#fff"/><path d="M7.11 75.85a.417.417 0 0 1-.306-.127.417.417 0 0 1-.126-.306v-2.304H.972a.417.417 0 0 1-.306-.126.417.417 0 0 1-.126-.306v-1.224c0-.192.066-.372.198-.54l5.31-7.362a.545.545 0 0 1 .27-.216c.12-.06.252-.09.396-.09h1.962c.132 0 .234.042.306.126a.381.381 0 0 1 .126.306v7.308h1.602c.132 0 .24.042.324.126a.381.381 0 0 1 .126.306v1.26c0 .12-.042.222-.126.306a.417.417 0 0 1-.306.126h-1.62v2.304c0 .12-.042.222-.126.306a.381.381 0 0 1-.306.126H7.11Zm-.378-4.789V65.86l-3.69 5.202h3.69Zm6.329 4.788a.417.417 0 0 1-.306-.126.417.417 0 0 1-.126-.306v-1.782c0-.12.042-.222.126-.306a.392.392 0 0 1 .306-.144h1.8c.12 0 .222.048.306.144a.417.417 0 0 1 .126.306v1.782c0 .12-.042.222-.126.306a.417.417 0 0 1-.306.126h-1.8Zm8.812.198c-.996 0-1.854-.168-2.574-.504-.708-.336-1.254-.78-1.638-1.332a3.364 3.364 0 0 1-.594-1.782v-.036a.29.29 0 0 1 .108-.234.407.407 0 0 1 .27-.09h1.674c.276 0 .456.12.54.36.168.528.444.918.828 1.17.396.252.858.378 1.386.378.672 0 1.23-.204 1.674-.612.456-.408.684-.978.684-1.71 0-.648-.228-1.176-.684-1.584-.444-.408-1.002-.612-1.674-.612-.36 0-.654.048-.882.144-.228.096-.45.228-.666.396a3.58 3.58 0 0 1-.342.234.601.601 0 0 1-.27.054h-1.656a.43.43 0 0 1-.288-.108.43.43 0 0 1-.108-.288l.63-6.156a.488.488 0 0 1 .504-.486h6.768c.12 0 .222.042.306.126a.417.417 0 0 1 .126.306v1.206c0 .12-.042.222-.126.306a.417.417 0 0 1-.306.126h-5.202l-.288 2.934c.588-.408 1.374-.612 2.358-.612.78 0 1.5.168 2.16.504a3.829 3.829 0 0 1 1.602 1.422c.396.612.594 1.326.594 2.142 0 .876-.204 1.644-.612 2.304-.408.648-.984 1.152-1.728 1.512-.732.348-1.59.522-2.574.522Z" fill="#141A27"/><path fill-rule="evenodd" clip-rule="evenodd" d="M41.402 12.403h14.423v2.685h-5.68v15.136h-3.112V15.088h-5.655l.024-2.685Zm13.805 4.919h2.661v2.495h.047c.096-.357.262-.69.5-1.022.237-.333.522-.642.879-.903a3.886 3.886 0 0 1 1.14-.665 3.318 3.318 0 0 1 1.26-.262c.208 0 .379.01.507.017.076.004.137.007.182.007.118.024.26.048.38.048v2.732c-.19-.047-.404-.071-.618-.095l-.058-.006a4.86 4.86 0 0 0-.56-.041c-.475 0-.927.095-1.354.285-.428.19-.784.475-1.117.831-.309.38-.57.832-.76 1.379-.19.546-.285 1.188-.285 1.9v6.13h-2.852l.048-12.83Zm17.82 12.902h2.828V17.322h-2.851v7.484c0 .5-.048.975-.167 1.402-.118.428-.285.808-.546 1.117-.238.309-.57.547-.974.737-.404.19-.903.285-1.497.285-.784 0-1.402-.238-1.83-.713-.451-.451-.665-1.26-.665-2.4v-7.912h-2.852v8.197c0 1.687.38 2.97 1.141 3.802.76.855 1.996 1.26 3.683 1.26a4.14 4.14 0 0 0 2.115-.595c.689-.404 1.212-.903 1.568-1.568h.047v1.806Zm7.652-4.134c.095.831.403 1.402.95 1.758.546.333 1.212.499 1.972.499.261 0 .57-.024.903-.071.333-.048.665-.119.95-.238.31-.119.547-.285.737-.523.19-.237.285-.522.261-.879-.023-.356-.142-.665-.403-.903-.262-.237-.57-.404-.95-.57a8.234 8.234 0 0 0-1.332-.356c-.405-.078-.811-.17-1.23-.267l-.29-.066a16.441 16.441 0 0 1-1.545-.428 4.427 4.427 0 0 1-1.33-.689c-.38-.285-.713-.641-.927-1.093-.238-.451-.356-.974-.356-1.64 0-.712.166-1.282.522-1.758a3.789 3.789 0 0 1 1.307-1.14 5.933 5.933 0 0 1 1.758-.618c.642-.119 1.26-.166 1.83-.166.665 0 1.307.071 1.901.214.594.142 1.164.356 1.64.689.499.309.902.736 1.211 1.235.333.5.523 1.117.618 1.83h-2.97c-.143-.69-.452-1.14-.927-1.378-.499-.238-1.045-.357-1.687-.357-.19 0-.451.024-.713.048a4.21 4.21 0 0 0-.784.19 1.858 1.858 0 0 0-.617.404c-.167.166-.262.404-.262.689 0 .356.119.618.357.832.237.213.546.38.95.546.38.143.832.261 1.33.357.5.095 1.022.213 1.545.332.523.119 1.022.261 1.52.428.5.166.951.38 1.331.689.38.285.713.641.95 1.07.239.427.357.973.357 1.591 0 .76-.166 1.402-.522 1.948a4.443 4.443 0 0 1-1.355 1.307c-.546.333-1.188.57-1.853.737-.69.142-1.355.238-2.02.238a8.51 8.51 0 0 1-2.257-.286 5.748 5.748 0 0 1-1.806-.831 3.988 3.988 0 0 1-1.188-1.402c-.285-.547-.451-1.212-.475-1.996h2.875v.024h.024Zm11.547-8.768h-2.162v2.114h2.162v7.604c.024.523.072 1.022.167 1.426.095.404.261.736.522 1.021.262.262.618.476 1.07.618.451.143 1.045.214 1.806.214.332 0 .617 0 .926-.047.31-.024.618-.048.927-.096v-2.21a4.585 4.585 0 0 1-.537.089l-.057.007c-.19.023-.404.023-.594.023a2.12 2.12 0 0 1-.76-.118.928.928 0 0 1-.404-.333 1.647 1.647 0 0 1-.167-.547c-.023-.237-.047-.475-.047-.784v-6.89h2.566v-2.115h-2.566v-3.873h-2.852v3.897Zm7.438 0h2.661v1.758h.047c.404-.76.951-1.283 1.664-1.616a5.382 5.382 0 0 1 2.328-.499c1.022 0 1.901.167 2.661.547.761.356 1.378.831 1.877 1.473.499.618.88 1.355 1.117 2.186.238.832.38 1.735.38 2.661 0 .88-.118 1.711-.332 2.519-.238.808-.571 1.544-1.022 2.162a5.051 5.051 0 0 1-1.735 1.497c-.712.38-1.52.57-2.471.57-.404 0-.831-.047-1.235-.118a5.257 5.257 0 0 1-1.188-.357 4.271 4.271 0 0 1-1.046-.641 3.637 3.637 0 0 1-.808-.903h-.047V35h-2.852V17.322Zm9.694 4.776c.166.546.238 1.116.238 1.687 0 .57-.072 1.116-.19 1.687a4.188 4.188 0 0 1-.618 1.45c-.309.403-.665.76-1.117 1.02-.451.262-.974.405-1.639.405-.594 0-1.093-.12-1.545-.357a3.39 3.39 0 0 1-1.14-.95c-.333-.404-.547-.88-.713-1.426-.167-.546-.238-1.14-.238-1.806 0-1.378.309-2.494.903-3.326.618-.832 1.521-1.236 2.709-1.236.57 0 1.093.12 1.544.38.428.262.808.595 1.117 1.022.309.428.547.903.689 1.45Zm5.251-9.695h2.852v2.685h-2.852v-2.685Zm2.852 4.919h-2.852v12.902h2.852V17.322Zm2.542-4.919h2.851v17.821h-2.851v-17.82Zm8.792 17.655c.807.356 1.734.522 2.756.522 1.045 0 1.948-.19 2.756-.522a5.705 5.705 0 0 0 2.044-1.402c.546-.618.95-1.33 1.259-2.162.309-.832.451-1.735.451-2.733 0-.974-.166-1.877-.451-2.709a6.109 6.109 0 0 0-1.259-2.162 5.923 5.923 0 0 0-2.044-1.402c-.808-.356-1.734-.523-2.756-.523-1.022 0-1.949.19-2.756.523a5.705 5.705 0 0 0-2.044 1.402 6.324 6.324 0 0 0-1.259 2.162c-.309.832-.452 1.735-.452 2.709s.167 1.9.452 2.733a6.108 6.108 0 0 0 1.259 2.162c.57.594 1.236 1.045 2.044 1.402Zm2.756-1.735c.618 0 1.188-.143 1.639-.404.476-.261.832-.618 1.141-1.045.309-.428.523-.927.665-1.45a6.498 6.498 0 0 0 0-3.303 4.247 4.247 0 0 0-.665-1.45 3.607 3.607 0 0 0-1.141-1.02 3.35 3.35 0 0 0-1.639-.405c-.618 0-1.188.143-1.64.404-.475.262-.831.618-1.14 1.022a4.268 4.268 0 0 0-.666 1.45 6.496 6.496 0 0 0 0 3.302c.143.547.357 1.022.666 1.45.309.427.689.784 1.14 1.045.475.285 1.022.404 1.64.404Zm9.528-11.001h-2.162v2.114h2.162v7.604c.024.523.071 1.022.166 1.426.095.404.262.736.523 1.021.261.262.618.476 1.069.618.452.143 1.046.214 1.806.214.333 0 .618 0 .927-.047.309-.024.618-.048.926-.096v-2.21a4.546 4.546 0 0 1-.537.089l-.057.007c-.19.023-.404.023-.594.023a2.12 2.12 0 0 1-.76-.118.93.93 0 0 1-.404-.333 1.66 1.66 0 0 1-.166-.547 7.239 7.239 0 0 1-.048-.784v-6.89h2.566v-2.115h-2.566v-3.873h-2.851v3.897Z" fill="#141A27"/><path d="M35.145 12.403H22.1L18.084 0l-4.04 12.403L1 12.38l10.55 7.675-4.04 12.404 10.55-7.675 10.55 7.675-4.015-12.404 10.55-7.65Z" fill="#1D9C5B"/><path d="m25.497 22.858-.902-2.804-6.511 4.729 7.413-1.925Z" fill="#005128"/></svg>